<svg xmlns="http://www.w3.org/2000/svg" xmlns:xlink="http://www.w3.org/1999/xlink" width="1200" height="651.3"><rect width="1200" height="651.3" rx="0" ry="0" class="a"/><svg height="651.3" viewBox="0 0 120 65.13" width="1200" xmlns="http://www.w3.org/2000/svg" xmlns:xlink="http://www.w3.org/1999/xlink"><style>@keyframes k{0%{transform:translateX(0)}.4%{transform:translateX(-120px)}.6%{transform:translateX(-480px)}.7%{transform:translateX(-600px)}10.7%{transform:translateX(-720px)}11.8%{transform:translateX(-840px)}13%{transform:translateX(-960px)}13.5%{transform:translateX(-1080px)}14.4%{transform:translateX(-1200px)}15.5%{transform:translateX(-1320px)}15.8%{transform:translateX(-1440px)}17.2%{transform:translateX(-1560px)}17.5%{transform:translateX(-1680px)}18.8%{transform:translateX(-1800px)}19.8%{transform:translateX(-1920px)}22.3%{transform:translateX(-2040px)}24.1%{transform:translateX(-2160px)}25%{transform:translateX(-2280px)}26.3%{transform:translateX(-2400px)}27.5%{transform:translateX(-2520px)}30.5%{transform:translateX(-2640px)}33.1%{transform:translateX(-2760px)}33.6%{transform:translateX(-2880px)}34.8%{transform:translateX(-3000px)}35.5%{transform:translateX(-3120px)}36.5%{transform:translateX(-3240px)}38.9%{transform:translateX(-3360px)}39.5%{transform:translateX(-3480px)}49.5%{transform:translateX(-3600px)}59.5%{transform:translateX(-3720px)}68.2%{transform:translateX(-4320px)}68.3%{transform:translateX(-4560px)}68.8%{transform:translateX(-4680px)}68.9%{transform:translateX(-4800px)}69%{transform:translateX(-4920px)}73.8%{transform:translateX(-5040px)}77.1%{transform:translateX(-5160px)}86.2%{transform:translateX(-5280px)}88%{transform:translateX(-5400px)}91.5%{transform:translateX(-5520px)}95.7%{transform:translateX(-5640px)}96.8%{transform:translateX(-5760px)}98.2%{transform:translateX(-5880px)}to{transform:translateX(-6120px)}}.a{fill:#282d35}.c{fill:#a8cc8c;font-weight:700;white-space:pre}.e,.f,.g,.h{fill:#66c2cd;white-space:pre}.f,.g,.h{fill:#b9c0cb}.g,.h{fill:#71bef2;font-weight:700}.h{fill:#e88388}</style><g font-family="Monaco,Consolas,Menlo,'Bitstream Vera Sans Mono','Powerline Symbols',monospace" font-size="1.67"><defs><symbol id="18"><text x="1.002" y="1.67" class="f">1.</text><text x="4.008" y="1.67" class="f">The</text><text x="8.016" y="1.67" class="f">Docker</text><text x="15.03" y="1.67" class="f">client</text><text x="22.044" y="1.67" class="f">contacted</text><text x="32.064" y="1.67" class="f">the</text><text x="36.072" y="1.67" class="f">Docker</text><text x="43.086" y="1.67" class="f">daemon.</text></symbol><symbol id="1"><text x="1.002" y="1.67" class="c">*</text><text x="3.006" y="1.67" style="white-space:pre" fill="#d290e4" font-weight="700">keychain</text><text x="12.024" y="1.67" class="e">2.8.2</text><text x="18.036" y="1.67" class="f">~</text><text x="20.04" y="1.67" class="c">http://www.funtoo.org</text></symbol><symbol id="3"><text x="1.002" y="1.67" class="c">*</text><text x="3.006" y="1.67" class="f">Known</text><text x="9.018" y="1.67" class="f">ssh</text><text x="13.026" y="1.67" class="f">key:</text><text x="18.036" y="1.67" class="e">/home/shabie/.ssh/id_rsa</text></symbol><symbol id="4"><text y="1.67" class="c">shabie</text><text x="6.012" y="1.67" class="f">:</text><text x="7.014" y="1.67" class="g">~/Projects/containers</text><text x="28.056" y="1.67" class="h">(master)</text><text x="36.072" y="1.67" class="f">$</text></symbol><symbol id="5"><text y="1.67" class="c">shabie</text><text x="6.012" y="1.67" class="f">:</text><text x="7.014" y="1.67" class="g">~/Projects/containers</text><text x="28.056" y="1.67" class="h">(master)</text><text x="36.072" y="1.67" class="f">$</text><text x="38.076" y="1.67" class="f">docker</text></symbol><symbol id="6"><text y="1.67" class="c">shabie</text><text x="6.012" y="1.67" class="f">:</text><text x="7.014" y="1.67" class="g">~/Projects/containers</text><text x="28.056" y="1.67" class="h">(master)</text><text x="36.072" y="1.67" class="f">$</text><text x="38.076" y="1.67" class="f">docker</text><text x="45.09" y="1.67" class="f">run</text></symbol><symbol id="7"><text y="1.67" class="c">shabie</text><text x="6.012" y="1.67" class="f">:</text><text x="7.014" y="1.67" class="g">~/Projects/containers</text><text x="28.056" y="1.67" class="h">(master)</text><text x="36.072" y="1.67" class="f">$</text><text x="38.076" y="1.67" class="f">docker</text><text x="45.09" y="1.67" class="f">run</text><text x="49.098" y="1.67" class="f">hello-world</text></symbol><symbol id="8"><text y="1.67" class="f">Unable</text><text x="7.014" y="1.67" class="f">to</text><text x="10.02" y="1.67" class="f">find</text><text x="15.03" y="1.67" class="f">image</text><text x="21.042" y="1.67" class="f">&apos;hello-world:latest&apos;</text><text x="42.084" y="1.67" class="f">locally</text></symbol><symbol id="9"><text y="1.67" class="f">latest:</text><text x="8.016" y="1.67" class="f">Pulling</text><text x="16.032" y="1.67" class="f">from</text><text x="21.042" y="1.67" class="f">library/hello-world</text></symbol><symbol id="10"><text y="1.67" class="f">0e03bdcc26d7:</text></symbol><symbol id="11"><text y="1.67" class="f">0e03bdcc26d7:</text><text x="14.028" y="1.67" class="f">Extracting</text><text x="25.05" y="1.67" class="f">[==================================================&gt;]</text><text x="80.16" y="1.67" class="f">2.529kB/2.529kB</text></symbol><symbol id="12"><text y="1.67" class="f">0e03bdcc26d7:</text><text x="14.028" y="1.67" class="f">Pull</text><text x="19.038" y="1.67" class="f">complete</text></symbol><symbol id="13"><text y="1.67" class="f">Digest:</text><text x="8.016" y="1.67" class="f">sha256:d58e752213a51785838f9eed2b7a498ffa1cb3aa7f946dda11af39286c3db9a9</text></symbol><symbol id="14"><text y="1.67" class="f">Status:</text><text x="8.016" y="1.67" class="f">Downloaded</text><text x="19.038" y="1.67" class="f">newer</text><text x="25.05" y="1.67" class="f">image</text><text x="31.062" y="1.67" class="f">for</text><text x="35.07" y="1.67" class="f">hello-world:latest</text></symbol><symbol id="15"><text y="1.67" class="f">Hello</text><text x="6.012" y="1.67" class="f">from</text><text x="11.022" y="1.67" class="f">Docker!</text></symbol><symbol id="16"><text y="1.67" class="f">This</text><text x="5.01" y="1.67" class="f">message</text><text x="13.026" y="1.67" class="f">shows</text><text x="19.038" y="1.67" class="f">that</text><text x="24.048" y="1.67" class="f">your</text><text x="29.058" y="1.67" class="f">installation</text><text x="42.084" y="1.67" class="f">appears</text><text x="50.1" y="1.67" class="f">to</text><text x="53.106" y="1.67" class="f">be</text><text x="56.112" y="1.67" class="f">working</text><text x="64.128" y="1.67" class="f">correctly.</text></symbol><symbol id="17"><text y="1.67" class="f">To</text><text x="3.006" y="1.67" class="f">generate</text><text x="12.024" y="1.67" class="f">this</text><text x="17.034" y="1.67" class="f">message,</text><text x="26.052" y="1.67" class="f">Docker</text><text x="33.066" y="1.67" class="f">took</text><text x="38.076" y="1.67" class="f">the</text><text x="42.084" y="1.67" class="f">following</text><text x="52.104" y="1.67" class="f">steps:</text></symbol><symbol id="2"><text x="1.002" y="1.67" class="c">*</text><text x="3.006" y="1.67" class="f">Found</text><text x="9.018" y="1.67" class="f">existing</text><text x="18.036" y="1.67" class="f">ssh-agent:</text><text x="29.058" y="1.67" class="e">5703</text></symbol><symbol id="19"><text x="1.002" y="1.67" class="f">2.</text><text x="4.008" y="1.67" class="f">The</text><text x="8.016" y="1.67" class="f">Docker</text><text x="15.03" y="1.67" class="f">daemon</text><text x="22.044" y="1.67" class="f">pulled</text><text x="29.058" y="1.67" class="f">the</text><text x="33.066" y="1.67" class="f">&quot;hello-world&quot;</text><text x="47.094" y="1.67" class="f">image</text><text x="53.106" y="1.67" class="f">from</text><text x="58.116" y="1.67" class="f">the</text><text x="62.124" y="1.67" class="f">Docker</text><text x="69.138" y="1.67" class="f">Hub.</text></symbol><symbol id="20"><text x="4.008" y="1.67" class="f">(amd64)</text></symbol><symbol id="21"><text x="1.002" y="1.67" class="f">3.</text><text x="4.008" y="1.67" class="f">The</text><text x="8.016" y="1.67" class="f">Docker</text><text x="15.03" y="1.67" class="f">daemon</text><text x="22.044" y="1.67" class="f">created</text><text x="30.06" y="1.67" class="f">a</text><text x="32.064" y="1.67" class="f">new</text><text x="36.072" y="1.67" class="f">container</text><text x="46.092" y="1.67" class="f">from</text><text x="51.102" y="1.67" class="f">that</text><text x="56.112" y="1.67" class="f">image</text><text x="62.124" y="1.67" class="f">which</text><text x="68.136" y="1.67" class="f">runs</text><text x="73.146" y="1.67" class="f">the</text></symbol><symbol id="22"><text x="4.008" y="1.67" class="f">executable</text><text x="15.03" y="1.67" class="f">that</text><text x="20.04" y="1.67" class="f">produces</text><text x="29.058" y="1.67" class="f">the</text><text x="33.066" y="1.67" class="f">output</text><text x="40.08" y="1.67" class="f">you</text><text x="44.088" y="1.67" class="f">are</text><text x="48.096" y="1.67" class="f">currently</text><text x="58.116" y="1.67" class="f">reading.</text></symbol><symbol id="23"><text x="1.002" y="1.67" class="f">4.</text><text x="4.008" y="1.67" class="f">The</text><text x="8.016" y="1.67" class="f">Docker</text><text x="15.03" y="1.67" class="f">daemon</text><text x="22.044" y="1.67" class="f">streamed</text><text x="31.062" y="1.67" class="f">that</text><text x="36.072" y="1.67" class="f">output</text><text x="43.086" y="1.67" class="f">to</text><text x="46.092" y="1.67" class="f">the</text><text x="50.1" y="1.67" class="f">Docker</text><text x="57.114" y="1.67" class="f">client,</text><text x="65.13" y="1.67" class="f">which</text><text x="71.142" y="1.67" class="f">sent</text><text x="76.152" y="1.67" class="f">it</text></symbol><symbol id="24"><text x="4.008" y="1.67" class="f">to</text><text x="7.014" y="1.67" class="f">your</text><text x="12.024" y="1.67" class="f">terminal.</text></symbol><symbol id="25"><text y="1.67" class="f">To</text><text x="3.006" y="1.67" class="f">try</text><text x="7.014" y="1.67" class="f">something</text><text x="17.034" y="1.67" class="f">more</text><text x="22.044" y="1.67" class="f">ambitious,</text><text x="33.066" y="1.67" class="f">you</text><text x="37.074" y="1.67" class="f">can</text><text x="41.082" y="1.67" class="f">run</text><text x="45.09" y="1.67" class="f">an</text><text x="48.096" y="1.67" class="f">Ubuntu</text><text x="55.11" y="1.67" class="f">container</text><text x="65.13" y="1.67" class="f">with:</text></symbol><symbol id="26"><text x="1.002" y="1.67" class="f">$</text><text x="3.006" y="1.67" class="f">docker</text><text x="10.02" y="1.67" class="f">run</text><text x="14.028" y="1.67" class="f">-it</text><text x="18.036" y="1.67" class="f">ubuntu</text><text x="25.05" y="1.67" class="f">bash</text></symbol><symbol id="27"><text y="1.67" class="f">Share</text><text x="6.012" y="1.67" class="f">images,</text><text x="14.028" y="1.67" class="f">automate</text><text x="23.046" y="1.67" class="f">workflows,</text><text x="34.068" y="1.67" class="f">and</text><text x="38.076" y="1.67" class="f">more</text><text x="43.086" y="1.67" class="f">with</text><text x="48.096" y="1.67" class="f">a</text><text x="50.1" y="1.67" class="f">free</text><text x="55.11" y="1.67" class="f">Docker</text><text x="62.124" y="1.67" class="f">ID:</text></symbol><symbol id="28"><text x="1.002" y="1.67" class="f">https://hub.docker.com/</text></symbol><symbol id="29"><text y="1.67" class="f">For</text><text x="4.008" y="1.67" class="f">more</text><text x="9.018" y="1.67" class="f">examples</text><text x="18.036" y="1.67" class="f">and</text><text x="22.044" y="1.67" class="f">ideas,</text><text x="29.058" y="1.67" class="f">visit:</text></symbol><symbol id="30"><text x="1.002" y="1.67" class="f">https://docs.docker.com/get-started/</text></symbol><symbol id="31"><text y="1.67" class="c">shabie</text><text x="6.012" y="1.67" class="f">:</text><text x="7.014" y="1.67" class="g">~/Projects/containers</text><text x="28.056" y="1.67" class="h">(master)</text><text x="36.072" y="1.67" class="f">$</text><text x="38.076" y="1.67" class="f">e</text></symbol><symbol id="32"><text y="1.67" class="c">shabie</text><text x="6.012" y="1.67" class="f">:</text><text x="7.014" y="1.67" class="g">~/Projects/containers</text><text x="28.056" y="1.67" class="h">(master)</text><text x="36.072" y="1.67" class="f">$</text><text x="38.076" y="1.67" class="f">ex</text></symbol><symbol id="33"><text y="1.67" class="c">shabie</text><text x="6.012" y="1.67" class="f">:</text><text x="7.014" y="1.67" class="g">~/Projects/containers</text><text x="28.056" y="1.67" class="h">(master)</text><text x="36.072" y="1.67" class="f">$</text><text x="38.076" y="1.67" class="f">exit</text></symbol><symbol id="a"><path fill="transparent" d="M0 0h120v31H0z"/></symbol><symbol id="b"><path fill="#6f7683" d="M0 0h1.102v2.171H0z"/></symbol></defs><path class="a" d="M0 0h120v65.13H0z"/><g style="animation-duration:10.018398000000001s;animation-iteration-count:infinite;animation-name:k;animation-timing-function:steps(1,end)"><svg width="6240"><svg><use xlink:href="#a"/><use xlink:href="#b" x="-.004"/></svg><svg x="120"><use xlink:href="#a"/><use xlink:href="#b" x="-.004" y="4.317"/><use xlink:href="#1" y="2.171"/></svg><svg x="240"><use xlink:href="#a"/><use xlink:href="#b" x="-.004" y="6.488"/><use xlink:href="#1" y="2.171"/><use xlink:href="#2" y="4.342"/></svg><svg x="360"><use xlink:href="#a"/><use xlink:href="#b" x="-.004" y="8.659"/><use xlink:href="#1" y="2.171"/><use xlink:href="#2" y="4.342"/><use xlink:href="#3" y="6.513"/></svg><svg x="480"><use xlink:href="#a"/><use xlink:href="#b" x="-.004" y="10.83"/><use xlink:href="#1" y="2.171"/><use xlink:href="#2" y="4.342"/><use xlink:href="#3" y="6.513"/></svg><svg x="600"><use xlink:href="#a"/><use xlink:href="#b" x="37.996" y="10.83"/><use xlink:href="#1" y="2.171"/><use xlink:href="#2" y="4.342"/><use xlink:href="#3" y="6.513"/><use xlink:href="#4" y="10.855"/></svg><svg x="720"><use xlink:href="#a"/><use xlink:href="#b" x="38.996" y="10.83"/><use xlink:href="#1" y="2.171"/><use xlink:href="#2" y="4.342"/><use xlink:href="#3" y="6.513"/><text y="12.525" class="c">shabie</text><text x="6.012" y="12.525" class="f">:</text><text x="7.014" y="12.525" class="g">~/Projects/containers</text><text x="28.056" y="12.525" class="h">(master)</text><text x="36.072" y="12.525" class="f">$</text><text x="38.076" y="12.525" class="f">d</text></svg><svg x="840"><use xlink:href="#a"/><use xlink:href="#b" x="39.996" y="10.83"/><use xlink:href="#1" y="2.171"/><use xlink:href="#2" y="4.342"/><use xlink:href="#3" y="6.513"/><text y="12.525" class="c">shabie</text><text x="6.012" y="12.525" class="f">:</text><text x="7.014" y="12.525" class="g">~/Projects/containers</text><text x="28.056" y="12.525" class="h">(master)</text><text x="36.072" y="12.525" class="f">$</text><text x="38.076" y="12.525" class="f">do</text></svg><svg x="960"><use xlink:href="#a"/><use xlink:href="#b" x="40.996" y="10.83"/><use xlink:href="#1" y="2.171"/><use xlink:href="#2" y="4.342"/><use xlink:href="#3" y="6.513"/><text y="12.525" class="c">shabie</text><text x="6.012" y="12.525" class="f">:</text><text x="7.014" y="12.525" class="g">~/Projects/containers</text><text x="28.056" y="12.525" class="h">(master)</text><text x="36.072" y="12.525" class="f">$</text><text x="38.076" y="12.525" class="f">doc</text></svg><svg x="1080"><use xlink:href="#a"/><use xlink:href="#b" x="41.996" y="10.83"/><use xlink:href="#1" y="2.171"/><use xlink:href="#2" y="4.342"/><use xlink:href="#3" y="6.513"/><text y="12.525" class="c">shabie</text><text x="6.012" y="12.525" class="f">:</text><text x="7.014" y="12.525" class="g">~/Projects/containers</text><text x="28.056" y="12.525" class="h">(master)</text><text x="36.072" y="12.525" class="f">$</text><text x="38.076" y="12.525" class="f">dock</text></svg><svg x="1200"><use xlink:href="#a"/><use xlink:href="#b" x="42.996" y="10.83"/><use xlink:href="#1" y="2.171"/><use xlink:href="#2" y="4.342"/><use xlink:href="#3" y="6.513"/><text y="12.525" class="c">shabie</text><text x="6.012" y="12.525" class="f">:</text><text x="7.014" y="12.525" class="g">~/Projects/containers</text><text x="28.056" y="12.525" class="h">(master)</text><text x="36.072" y="12.525" class="f">$</text><text x="38.076" y="12.525" class="f">docke</text></svg><svg x="1320"><use xlink:href="#a"/><use xlink:href="#b" x="43.996" y="10.83"/><use xlink:href="#1" y="2.171"/><use xlink:href="#2" y="4.342"/><use xlink:href="#3" y="6.513"/><use xlink:href="#5" y="10.855"/></svg><svg x="1440"><use xlink:href="#a"/><use xlink:href="#b" x="44.996" y="10.83"/><use xlink:href="#1" y="2.171"/><use xlink:href="#2" y="4.342"/><use xlink:href="#3" y="6.513"/><use xlink:href="#5" y="10.855"/></svg><svg x="1560"><use xlink:href="#a"/><use xlink:href="#b" x="45.996" y="10.83"/><use xlink:href="#1" y="2.171"/><use xlink:href="#2" y="4.342"/><use xlink:href="#3" y="6.513"/><text y="12.525" class="c">shabie</text><text x="6.012" y="12.525" class="f">:</text><text x="7.014" y="12.525" class="g">~/Projects/containers</text><text x="28.056" y="12.525" class="h">(master)</text><text x="36.072" y="12.525" class="f">$</text><text x="38.076" y="12.525" class="f">docker</text><text x="45.09" y="12.525" class="f">r</text></svg><svg x="1680"><use xlink:href="#a"/><use xlink:href="#b" x="46.996" y="10.83"/><use xlink:href="#1" y="2.171"/><use xlink:href="#2" y="4.342"/><use xlink:href="#3" y="6.513"/><text y="12.525" class="c">shabie</text><text x="6.012" y="12.525" class="f">:</text><text x="7.014" y="12.525" class="g">~/Projects/containers</text><text x="28.056" y="12.525" class="h">(master)</text><text x="36.072" y="12.525" class="f">$</text><text x="38.076" y="12.525" class="f">docker</text><text x="45.09" y="12.525" class="f">ru</text></svg><svg x="1800"><use xlink:href="#a"/><use xlink:href="#b" x="47.996" y="10.83"/><use xlink:href="#1" y="2.171"/><use xlink:href="#2" y="4.342"/><use xlink:href="#3" y="6.513"/><use xlink:href="#6" y="10.855"/></svg><svg x="1920"><use xlink:href="#a"/><use xlink:href="#b" x="48.996" y="10.83"/><use xlink:href="#1" y="2.171"/><use xlink:href="#2" y="4.342"/><use xlink:href="#3" y="6.513"/><use xlink:href="#6" y="10.855"/></svg><svg x="2040"><use xlink:href="#a"/><use xlink:href="#b" x="49.996" y="10.83"/><use xlink:href="#1" y="2.171"/><use xlink:href="#2" y="4.342"/><use xlink:href="#3" y="6.513"/><text y="12.525" class="c">shabie</text><text x="6.012" y="12.525" class="f">:</text><text x="7.014" y="12.525" class="g">~/Projects/containers</text><text x="28.056" y="12.525" class="h">(master)</text><text x="36.072" y="12.525" class="f">$</text><text x="38.076" y="12.525" class="f">docker</text><text x="45.09" y="12.525" class="f">run</text><text x="49.098" y="12.525" class="f">h</text></svg><svg x="2160"><use xlink:href="#a"/><use xlink:href="#b" x="50.996" y="10.83"/><use xlink:href="#1" y="2.171"/><use xlink:href="#2" y="4.342"/><use xlink:href="#3" y="6.513"/><text y="12.525" class="c">shabie</text><text x="6.012" y="12.525" class="f">:</text><text x="7.014" y="12.525" class="g">~/Projects/containers</text><text x="28.056" y="12.525" class="h">(master)</text><text x="36.072" y="12.525" class="f">$</text><text x="38.076" y="12.525" class="f">docker</text><text x="45.09" y="12.525" class="f">run</text><text x="49.098" y="12.525" class="f">he</text></svg><svg x="2280"><use xlink:href="#a"/><use xlink:href="#b" x="51.996" y="10.83"/><use xlink:href="#1" y="2.171"/><use xlink:href="#2" y="4.342"/><use xlink:href="#3" y="6.513"/><text y="12.525" class="c">shabie</text><text x="6.012" y="12.525" class="f">:</text><text x="7.014" y="12.525" class="g">~/Projects/containers</text><text x="28.056" y="12.525" class="h">(master)</text><text x="36.072" y="12.525" class="f">$</text><text x="38.076" y="12.525" class="f">docker</text><text x="45.09" y="12.525" class="f">run</text><text x="49.098" y="12.525" class="f">hel</text></svg><svg x="2400"><use xlink:href="#a"/><use xlink:href="#b" x="52.996" y="10.83"/><use xlink:href="#1" y="2.171"/><use xlink:href="#2" y="4.342"/><use xlink:href="#3" y="6.513"/><text y="12.525" class="c">shabie</text><text x="6.012" y="12.525" class="f">:</text><text x="7.014" y="12.525" class="g">~/Projects/containers</text><text x="28.056" y="12.525" class="h">(master)</text><text x="36.072" y="12.525" class="f">$</text><text x="38.076" y="12.525" class="f">docker</text><text x="45.09" y="12.525" class="f">run</text><text x="49.098" y="12.525" class="f">hell</text></svg><svg x="2520"><use xlink:href="#a"/><use xlink:href="#b" x="53.996" y="10.83"/><use xlink:href="#1" y="2.171"/><use xlink:href="#2" y="4.342"/><use xlink:href="#3" y="6.513"/><text y="12.525" class="c">shabie</text><text x="6.012" y="12.525" class="f">:</text><text x="7.014" y="12.525" class="g">~/Projects/containers</text><text x="28.056" y="12.525" class="h">(master)</text><text x="36.072" y="12.525" class="f">$</text><text x="38.076" y="12.525" class="f">docker</text><text x="45.09" y="12.525" class="f">run</text><text x="49.098" y="12.525" class="f">hello</text></svg><svg x="2640"><use xlink:href="#a"/><use xlink:href="#b" x="54.996" y="10.83"/><use xlink:href="#1" y="2.171"/><use xlink:href="#2" y="4.342"/><use xlink:href="#3" y="6.513"/><text y="12.525" class="c">shabie</text><text x="6.012" y="12.525" class="f">:</text><text x="7.014" y="12.525" class="g">~/Projects/containers</text><text x="28.056" y="12.525" class="h">(master)</text><text x="36.072" y="12.525" class="f">$</text><text x="38.076" y="12.525" class="f">docker</text><text x="45.09" y="12.525" class="f">run</text><text x="49.098" y="12.525" class="f">hello-</text></svg><svg x="2760"><use xlink:href="#a"/><use xlink:href="#b" x="55.996" y="10.83"/><use xlink:href="#1" y="2.171"/><use xlink:href="#2" y="4.342"/><use xlink:href="#3" y="6.513"/><text y="12.525" class="c">shabie</text><text x="6.012" y="12.525" class="f">:</text><text x="7.014" y="12.525" class="g">~/Projects/containers</text><text x="28.056" y="12.525" class="h">(master)</text><text x="36.072" y="12.525" class="f">$</text><text x="38.076" y="12.525" class="f">docker</text><text x="45.09" y="12.525" class="f">run</text><text x="49.098" y="12.525" class="f">hello-w</text></svg><svg x="2880"><use xlink:href="#a"/><use xlink:href="#b" x="56.996" y="10.83"/><use xlink:href="#1" y="2.171"/><use xlink:href="#2" y="4.342"/><use xlink:href="#3" y="6.513"/><text y="12.525" class="c">shabie</text><text x="6.012" y="12.525" class="f">:</text><text x="7.014" y="12.525" class="g">~/Projects/containers</text><text x="28.056" y="12.525" class="h">(master)</text><text x="36.072" y="12.525" class="f">$</text><text x="38.076" y="12.525" class="f">docker</text><text x="45.09" y="12.525" class="f">run</text><text x="49.098" y="12.525" class="f">hello-wo</text></svg><svg x="3000"><use xlink:href="#a"/><use xlink:href="#b" x="57.996" y="10.83"/><use xlink:href="#1" y="2.171"/><use xlink:href="#2" y="4.342"/><use xlink:href="#3" y="6.513"/><text y="12.525" class="c">shabie</text><text x="6.012" y="12.525" class="f">:</text><text x="7.014" y="12.525" class="g">~/Projects/containers</text><text x="28.056" y="12.525" class="h">(master)</text><text x="36.072" y="12.525" class="f">$</text><text x="38.076" y="12.525" class="f">docker</text><text x="45.09" y="12.525" class="f">run</text><text x="49.098" y="12.525" class="f">hello-wor</text></svg><svg x="3120"><use xlink:href="#a"/><use xlink:href="#b" x="58.996" y="10.83"/><use xlink:href="#1" y="2.171"/><use xlink:href="#2" y="4.342"/><use xlink:href="#3" y="6.513"/><text y="12.525" class="c">shabie</text><text x="6.012" y="12.525" class="f">:</text><text x="7.014" y="12.525" class="g">~/Projects/containers</text><text x="28.056" y="12.525" class="h">(master)</text><text x="36.072" y="12.525" class="f">$</text><text x="38.076" y="12.525" class="f">docker</text><text x="45.09" y="12.525" class="f">run</text><text x="49.098" y="12.525" class="f">hello-worl</text></svg><svg x="3240"><use xlink:href="#a"/><use xlink:href="#b" x="59.996" y="10.83"/><use xlink:href="#1" y="2.171"/><use xlink:href="#2" y="4.342"/><use xlink:href="#3" y="6.513"/><use xlink:href="#7" y="10.855"/></svg><svg x="3360"><use xlink:href="#a"/><use xlink:href="#b" x="-.004" y="13.001"/><use xlink:href="#1" y="2.171"/><use xlink:href="#2" y="4.342"/><use xlink:href="#3" y="6.513"/><use xlink:href="#7" y="10.855"/></svg><svg x="3480"><use xlink:href="#a"/><use xlink:href="#b" x="-.004" y="15.172"/><use xlink:href="#1" y="2.171"/><use xlink:href="#2" y="4.342"/><use xlink:href="#3" y="6.513"/><use xlink:href="#7" y="10.855"/><use xlink:href="#8" y="13.026"/></svg><svg x="3600"><use xlink:href="#a"/><use xlink:href="#b" x="-.004" y="17.343"/><use xlink:href="#1" y="2.171"/><use xlink:href="#2" y="4.342"/><use xlink:href="#3" y="6.513"/><use xlink:href="#7" y="10.855"/><use xlink:href="#8" y="13.026"/><use xlink:href="#9" y="15.197"/></svg><svg x="3720"><use xlink:href="#a"/><use xlink:href="#b" x="-.004" y="19.514"/><use xlink:href="#1" y="2.171"/><use xlink:href="#2" y="4.342"/><use xlink:href="#3" y="6.513"/><use xlink:href="#7" y="10.855"/><use xlink:href="#8" y="13.026"/><use xlink:href="#9" y="15.197"/><text y="19.038" class="f">0e03bdcc26d7:</text><text x="14.028" y="19.038" class="f">Pulling</text><text x="22.044" y="19.038" class="f">fs</text><text x="25.05" y="19.038" class="f">layer</text></svg><svg x="3840"><use xlink:href="#a"/><use xlink:href="#b" x="13.996" y="17.343"/><use xlink:href="#1" y="2.171"/><use xlink:href="#2" y="4.342"/><use xlink:href="#3" y="6.513"/><use xlink:href="#7" y="10.855"/><use xlink:href="#8" y="13.026"/><use xlink:href="#9" y="15.197"/><use xlink:href="#10" y="17.368"/></svg><svg x="3960"><use xlink:href="#a"/><use xlink:href="#b" x="-.004" y="19.514"/><use xlink:href="#1" y="2.171"/><use xlink:href="#2" y="4.342"/><use xlink:href="#3" y="6.513"/><use xlink:href="#7" y="10.855"/><use xlink:href="#8" y="13.026"/><use xlink:href="#9" y="15.197"/><text y="19.038" class="f">0e03bdcc26d7:</text><text x="14.028" y="19.038" class="f">Downloading</text><text x="26.052" y="19.038" class="f">[========&gt;</text><text x="78.156" y="19.038" class="f">]</text><text x="84.168" y="19.038" class="f">424B/2.529kB</text></svg><svg x="4080"><use xlink:href="#a"/><use xlink:href="#b" x="13.996" y="17.343"/><use xlink:href="#1" y="2.171"/><use xlink:href="#2" y="4.342"/><use xlink:href="#3" y="6.513"/><use xlink:href="#7" y="10.855"/><use xlink:href="#8" y="13.026"/><use xlink:href="#9" y="15.197"/><use xlink:href="#10" y="17.368"/></svg><svg x="4200"><use xlink:href="#a"/><use xlink:href="#b" x="-.004" y="19.514"/><use xlink:href="#1" y="2.171"/><use xlink:href="#2" y="4.342"/><use xlink:href="#3" y="6.513"/><use xlink:href="#7" y="10.855"/><use xlink:href="#8" y="13.026"/><use xlink:href="#9" y="15.197"/><text y="19.038" class="f">0e03bdcc26d7:</text><text x="14.028" y="19.038" class="f">Download</text><text x="23.046" y="19.038" class="f">complete</text></svg><svg x="4320"><use xlink:href="#a"/><use xlink:href="#b" x="-.004" y="19.514"/><use xlink:href="#1" y="2.171"/><use xlink:href="#2" y="4.342"/><use xlink:href="#3" y="6.513"/><use xlink:href="#7" y="10.855"/><use xlink:href="#8" y="13.026"/><use xlink:href="#9" y="15.197"/><use xlink:href="#11" y="17.368"/></svg><svg x="4440"><use xlink:href="#a"/><use xlink:href="#b" x="-.004" y="17.343"/><use xlink:href="#1" y="2.171"/><use xlink:href="#2" y="4.342"/><use xlink:href="#3" y="6.513"/><use xlink:href="#7" y="10.855"/><use xlink:href="#8" y="13.026"/><use xlink:href="#9" y="15.197"/></svg><svg x="4560"><use xlink:href="#a"/><use xlink:href="#b" x="-.004" y="19.514"/><use xlink:href="#1" y="2.171"/><use xlink:href="#2" y="4.342"/><use xlink:href="#3" y="6.513"/><use xlink:href="#7" y="10.855"/><use xlink:href="#8" y="13.026"/><use xlink:href="#9" y="15.197"/><use xlink:href="#11" y="17.368"/></svg><svg x="4680"><use xlink:href="#a"/><use xlink:href="#b" x="-.004" y="19.514"/><use xlink:href="#1" y="2.171"/><use xlink:href="#2" y="4.342"/><use xlink:href="#3" y="6.513"/><use xlink:href="#7" y="10.855"/><use xlink:href="#8" y="13.026"/><use xlink:href="#9" y="15.197"/><use xlink:href="#12" y="17.368"/></svg><svg x="4800"><use xlink:href="#a"/><use xlink:href="#b" x="-.004" y="21.685"/><use xlink:href="#1" y="2.171"/><use xlink:href="#2" y="4.342"/><use xlink:href="#3" y="6.513"/><use xlink:href="#7" y="10.855"/><use xlink:href="#8" y="13.026"/><use xlink:href="#9" y="15.197"/><use xlink:href="#12" y="17.368"/><use xlink:href="#13" y="19.539"/></svg><svg x="4920"><use xlink:href="#a"/><use xlink:href="#b" x="-.004" y="23.856"/><use xlink:href="#1" y="2.171"/><use xlink:href="#2" y="4.342"/><use xlink:href="#3" y="6.513"/><use xlink:href="#7" y="10.855"/><use xlink:href="#8" y="13.026"/><use xlink:href="#9" y="15.197"/><use xlink:href="#12" y="17.368"/><use xlink:href="#13" y="19.539"/><use xlink:href="#14" y="21.71"/></svg><svg x="5040"><use xlink:href="#a"/><use xlink:href="#b" x="-.004" y="65.105"/><use xlink:href="#3"/><use xlink:href="#7" y="4.342"/><use xlink:href="#8" y="6.513"/><use xlink:href="#9" y="8.684"/><use xlink:href="#12" y="10.855"/><use xlink:href="#13" y="13.026"/><use xlink:href="#14" y="15.197"/><use xlink:href="#15" y="19.539"/><use xlink:href="#16" y="21.71"/><use xlink:href="#17" y="26.052"/><use xlink:href="#18" y="28.223"/><use xlink:href="#19" y="30.394"/><use xlink:href="#20" y="32.565"/><use xlink:href="#21" y="34.736"/><use xlink:href="#22" y="36.907"/><use xlink:href="#23" y="39.078"/><use xlink:href="#24" y="41.249"/><use xlink:href="#25" y="45.591"/><use xlink:href="#26" y="47.762"/><use xlink:href="#27" y="52.104"/><use xlink:href="#28" y="54.275"/><use xlink:href="#29" y="58.617"/><use xlink:href="#30" y="60.788"/></svg><svg x="5160"><use xlink:href="#a"/><use xlink:href="#b" x="37.996" y="65.105"/><use xlink:href="#3"/><use xlink:href="#7" y="4.342"/><use xlink:href="#8" y="6.513"/><use xlink:href="#9" y="8.684"/><use xlink:href="#12" y="10.855"/><use xlink:href="#13" y="13.026"/><use xlink:href="#14" y="15.197"/><use xlink:href="#15" y="19.539"/><use xlink:href="#16" y="21.71"/><use xlink:href="#17" y="26.052"/><use xlink:href="#18" y="28.223"/><use xlink:href="#19" y="30.394"/><use xlink:href="#20" y="32.565"/><use xlink:href="#21" y="34.736"/><use xlink:href="#22" y="36.907"/><use xlink:href="#23" y="39.078"/><use xlink:href="#24" y="41.249"/><use xlink:href="#25" y="45.591"/><use xlink:href="#26" y="47.762"/><use xlink:href="#27" y="52.104"/><use xlink:href="#28" y="54.275"/><use xlink:href="#29" y="58.617"/><use xlink:href="#30" y="60.788"/><use xlink:href="#4" y="65.13"/></svg><svg x="5280"><use xlink:href="#a"/><use xlink:href="#b" x="38.996" y="65.105"/><use xlink:href="#3"/><use xlink:href="#7" y="4.342"/><use xlink:href="#8" y="6.513"/><use xlink:href="#9" y="8.684"/><use xlink:href="#12" y="10.855"/><use xlink:href="#13" y="13.026"/><use xlink:href="#14" y="15.197"/><use xlink:href="#15" y="19.539"/><use xlink:href="#16" y="21.71"/><use xlink:href="#17" y="26.052"/><use xlink:href="#18" y="28.223"/><use xlink:href="#19" y="30.394"/><use xlink:href="#20" y="32.565"/><use xlink:href="#21" y="34.736"/><use xlink:href="#22" y="36.907"/><use xlink:href="#23" y="39.078"/><use xlink:href="#24" y="41.249"/><use xlink:href="#25" y="45.591"/><use xlink:href="#26" y="47.762"/><use xlink:href="#27" y="52.104"/><use xlink:href="#28" y="54.275"/><use xlink:href="#29" y="58.617"/><use xlink:href="#30" y="60.788"/><use xlink:href="#31" y="65.13"/></svg><svg x="5400"><use xlink:href="#a"/><use xlink:href="#b" x="39.996" y="65.105"/><use xlink:href="#3"/><use xlink:href="#7" y="4.342"/><use xlink:href="#8" y="6.513"/><use xlink:href="#9" y="8.684"/><use xlink:href="#12" y="10.855"/><use xlink:href="#13" y="13.026"/><use xlink:href="#14" y="15.197"/><use xlink:href="#15" y="19.539"/><use xlink:href="#16" y="21.71"/><use xlink:href="#17" y="26.052"/><use xlink:href="#18" y="28.223"/><use xlink:href="#19" y="30.394"/><use xlink:href="#20" y="32.565"/><use xlink:href="#21" y="34.736"/><use xlink:href="#22" y="36.907"/><use xlink:href="#23" y="39.078"/><use xlink:href="#24" y="41.249"/><use xlink:href="#25" y="45.591"/><use xlink:href="#26" y="47.762"/><use xlink:href="#27" y="52.104"/><use xlink:href="#28" y="54.275"/><use xlink:href="#29" y="58.617"/><use xlink:href="#30" y="60.788"/><use xlink:href="#32" y="65.13"/></svg><svg x="5520"><use xlink:href="#a"/><use xlink:href="#b" x="38.996" y="65.105"/><use xlink:href="#3"/><use xlink:href="#7" y="4.342"/><use xlink:href="#8" y="6.513"/><use xlink:href="#9" y="8.684"/><use xlink:href="#12" y="10.855"/><use xlink:href="#13" y="13.026"/><use xlink:href="#14" y="15.197"/><use xlink:href="#15" y="19.539"/><use xlink:href="#16" y="21.71"/><use xlink:href="#17" y="26.052"/><use xlink:href="#18" y="28.223"/><use xlink:href="#19" y="30.394"/><use xlink:href="#20" y="32.565"/><use xlink:href="#21" y="34.736"/><use xlink:href="#22" y="36.907"/><use xlink:href="#23" y="39.078"/><use xlink:href="#24" y="41.249"/><use xlink:href="#25" y="45.591"/><use xlink:href="#26" y="47.762"/><use xlink:href="#27" y="52.104"/><use xlink:href="#28" y="54.275"/><use xlink:href="#29" y="58.617"/><use xlink:href="#30" y="60.788"/><use xlink:href="#31" y="65.13"/></svg><svg x="5640"><use xlink:href="#a"/><use xlink:href="#b" x="39.996" y="65.105"/><use xlink:href="#3"/><use xlink:href="#7" y="4.342"/><use xlink:href="#8" y="6.513"/><use xlink:href="#9" y="8.684"/><use xlink:href="#12" y="10.855"/><use xlink:href="#13" y="13.026"/><use xlink:href="#14" y="15.197"/><use xlink:href="#15" y="19.539"/><use xlink:href="#16" y="21.71"/><use xlink:href="#17" y="26.052"/><use xlink:href="#18" y="28.223"/><use xlink:href="#19" y="30.394"/><use xlink:href="#20" y="32.565"/><use xlink:href="#21" y="34.736"/><use xlink:href="#22" y="36.907"/><use xlink:href="#23" y="39.078"/><use xlink:href="#24" y="41.249"/><use xlink:href="#25" y="45.591"/><use xlink:href="#26" y="47.762"/><use xlink:href="#27" y="52.104"/><use xlink:href="#28" y="54.275"/><use xlink:href="#29" y="58.617"/><use xlink:href="#30" y="60.788"/><use xlink:href="#32" y="65.13"/></svg><svg x="5760"><use xlink:href="#a"/><use xlink:href="#b" x="40.996" y="65.105"/><use xlink:href="#3"/><use xlink:href="#7" y="4.342"/><use xlink:href="#8" y="6.513"/><use xlink:href="#9" y="8.684"/><use xlink:href="#12" y="10.855"/><use xlink:href="#13" y="13.026"/><use xlink:href="#14" y="15.197"/><use xlink:href="#15" y="19.539"/><use xlink:href="#16" y="21.71"/><use xlink:href="#17" y="26.052"/><use xlink:href="#18" y="28.223"/><use xlink:href="#19" y="30.394"/><use xlink:href="#20" y="32.565"/><use xlink:href="#21" y="34.736"/><use xlink:href="#22" y="36.907"/><use xlink:href="#23" y="39.078"/><use xlink:href="#24" y="41.249"/><use xlink:href="#25" y="45.591"/><use xlink:href="#26" y="47.762"/><use xlink:href="#27" y="52.104"/><use xlink:href="#28" y="54.275"/><use xlink:href="#29" y="58.617"/><use xlink:href="#30" y="60.788"/><text y="66.8" class="c">shabie</text><text x="6.012" y="66.8" class="f">:</text><text x="7.014" y="66.8" class="g">~/Projects/containers</text><text x="28.056" y="66.8" class="h">(master)</text><text x="36.072" y="66.8" class="f">$</text><text x="38.076" y="66.8" class="f">exi</text></svg><svg x="5880"><use xlink:href="#a"/><use xlink:href="#b" x="41.996" y="65.105"/><use xlink:href="#3"/><use xlink:href="#7" y="4.342"/><use xlink:href="#8" y="6.513"/><use xlink:href="#9" y="8.684"/><use xlink:href="#12" y="10.855"/><use xlink:href="#13" y="13.026"/><use xlink:href="#14" y="15.197"/><use xlink:href="#15" y="19.539"/><use xlink:href="#16" y="21.71"/><use xlink:href="#17" y="26.052"/><use xlink:href="#18" y="28.223"/><use xlink:href="#19" y="30.394"/><use xlink:href="#20" y="32.565"/><use xlink:href="#21" y="34.736"/><use xlink:href="#22" y="36.907"/><use xlink:href="#23" y="39.078"/><use xlink:href="#24" y="41.249"/><use xlink:href="#25" y="45.591"/><use xlink:href="#26" y="47.762"/><use xlink:href="#27" y="52.104"/><use xlink:href="#28" y="54.275"/><use xlink:href="#29" y="58.617"/><use xlink:href="#30" y="60.788"/><use xlink:href="#33" y="65.13"/></svg><svg x="6000"><use xlink:href="#a"/><use xlink:href="#b" x="-.004" y="65.105"/><use xlink:href="#7" y="2.171"/><use xlink:href="#8" y="4.342"/><use xlink:href="#9" y="6.513"/><use xlink:href="#12" y="8.684"/><use xlink:href="#13" y="10.855"/><use xlink:href="#14" y="13.026"/><use xlink:href="#15" y="17.368"/><use xlink:href="#16" y="19.539"/><use xlink:href="#17" y="23.881"/><use xlink:href="#18" y="26.052"/><use xlink:href="#19" y="28.223"/><use xlink:href="#20" y="30.394"/><use xlink:href="#21" y="32.565"/><use xlink:href="#22" y="34.736"/><use xlink:href="#23" y="36.907"/><use xlink:href="#24" y="39.078"/><use xlink:href="#25" y="43.42"/><use xlink:href="#26" y="45.591"/><use xlink:href="#27" y="49.933"/><use xlink:href="#28" y="52.104"/><use xlink:href="#29" y="56.446"/><use xlink:href="#30" y="58.617"/><use xlink:href="#33" y="62.959"/></svg><svg x="6120"><use xlink:href="#a"/><use xlink:href="#b" x="-.004" y="65.105"/><use xlink:href="#7"/><use xlink:href="#8" y="2.171"/><use xlink:href="#9" y="4.342"/><use xlink:href="#12" y="6.513"/><use xlink:href="#13" y="8.684"/><use xlink:href="#14" y="10.855"/><use xlink:href="#15" y="15.197"/><use xlink:href="#16" y="17.368"/><use xlink:href="#17" y="21.71"/><use xlink:href="#18" y="23.881"/><use xlink:href="#19" y="26.052"/><use xlink:href="#20" y="28.223"/><use xlink:href="#21" y="30.394"/><use xlink:href="#22" y="32.565"/><use xlink:href="#23" y="34.736"/><use xlink:href="#24" y="36.907"/><use xlink:href="#25" y="41.249"/><use xlink:href="#26" y="43.42"/><use xlink:href="#27" y="47.762"/><use xlink:href="#28" y="49.933"/><use xlink:href="#29" y="54.275"/><use xlink:href="#30" y="56.446"/><use xlink:href="#33" y="60.788"/><text y="64.629" class="f">logout</text></svg></svg></g></g></svg></svg>