<svg xmlns="http://www.w3.org/2000/svg" xmlns:xlink="http://www.w3.org/1999/xlink" width="1200" height="651.3"><rect width="1200" height="651.3" rx="0" ry="0" class="a"/><svg height="651.3" viewBox="0 0 120 65.13" width="1200" xmlns="http://www.w3.org/2000/svg" xmlns:xlink="http://www.w3.org/1999/xlink"><style>@keyframes k{0%{transform:translateX(0)}.2%{transform:translateX(-120px)}.28%{transform:translateX(-240px)}.31%{transform:translateX(-480px)}.34%{transform:translateX(-600px)}5.32%{transform:translateX(-720px)}10.29%{transform:translateX(-840px)}15.18%{transform:translateX(-960px)}17.11%{transform:translateX(-1080px)}17.56%{transform:translateX(-1200px)}22.54%{transform:translateX(-1320px)}23.04%{transform:translateX(-1440px)}28.01%{transform:translateX(-1560px)}32.77%{transform:translateX(-1680px)}37.74%{transform:translateX(-1800px)}42.72%{transform:translateX(-1920px)}47.7%{transform:translateX(-2040px)}52.67%{transform:translateX(-2160px)}57.65%{transform:translateX(-2280px)}59.47%{transform:translateX(-2520px)}59.52%{transform:translateX(-2640px)}64.5%{transform:translateX(-2760px)}65.13%{transform:translateX(-2880px)}65.78%{transform:translateX(-3000px)}66.22%{transform:translateX(-3120px)}67.11%{transform:translateX(-3240px)}67.47%{transform:translateX(-3360px)}71.01%{transform:translateX(-3480px)}72.21%{transform:translateX(-3600px)}72.75%{transform:translateX(-3720px)}73.42%{transform:translateX(-3840px)}73.67%{transform:translateX(-3960px)}75.08%{transform:translateX(-4080px)}75.33%{transform:translateX(-4200px)}76.23%{transform:translateX(-4320px)}76.66%{transform:translateX(-4440px)}77.81%{transform:translateX(-4560px)}78.4%{transform:translateX(-4680px)}80.09%{transform:translateX(-4800px)}85.07%{transform:translateX(-5040px)}85.12%{transform:translateX(-5160px)}90.09%{transform:translateX(-5280px)}91.44%{transform:translateX(-5400px)}94.05%{transform:translateX(-5520px)}95.01%{transform:translateX(-5640px)}99.99%{transform:translateX(-5880px)}}.a{fill:#282d35}.c{fill:#a8cc8c;font-weight:700;white-space:pre}.e,.f,.g,.h{fill:#66c2cd;white-space:pre}.f,.g,.h{fill:#b9c0cb}.g,.h{fill:#71bef2;font-weight:700}.h{fill:#e88388}</style><g font-family="Monaco,Consolas,Menlo,'Bitstream Vera Sans Mono','Powerline Symbols',monospace" font-size="1.67"><defs><symbol id="15"><text y="1.67" class="f">Installing</text><text x="11.022" y="1.67" class="f">Docker...</text></symbol><symbol id="1"><text x="1.002" y="1.67" class="c">*</text><text x="3.006" y="1.67" style="white-space:pre" fill="#d290e4" font-weight="700">keychain</text><text x="12.024" y="1.67" class="e">2.8.2</text><text x="18.036" y="1.67" class="f">~</text><text x="20.04" y="1.67" class="c">http://www.funtoo.org</text></symbol><symbol id="3"><text x="1.002" y="1.67" class="c">*</text><text x="3.006" y="1.67" class="f">Known</text><text x="9.018" y="1.67" class="f">ssh</text><text x="13.026" y="1.67" class="f">key:</text><text x="18.036" y="1.67" class="e">/home/shabie/.ssh/id_rsa</text></symbol><symbol id="4"><text y="1.67" class="c">shabie</text><text x="6.012" y="1.67" class="f">:</text><text x="7.014" y="1.67" class="g">~/Projects/containers/section2</text><text x="37.074" y="1.67" class="h">(master)</text><text x="45.09" y="1.67" class="f">$</text></symbol><symbol id="5"><text y="1.67" class="c">shabie</text><text x="6.012" y="1.67" class="f">:</text><text x="7.014" y="1.67" class="g">~/Projects/containers/section2</text><text x="37.074" y="1.67" class="h">(master)</text><text x="45.09" y="1.67" class="f">$</text><text x="47.094" y="1.67" class="f">docker-machine</text><text x="62.124" y="1.67" class="f">create</text><text x="69.138" y="1.67" class="f">--driver</text><text x="78.156" y="1.67" class="f">amazonec2</text><text x="88.176" y="1.67" class="f">--amazonec2-region</text><text x="107.214" y="1.67" class="f">eu-west-1</text><text x="117.234" y="1.67" class="f">--a</text></symbol><symbol id="6"><text y="1.67" class="f">mazonec2-open-port</text><text x="19.038" y="1.67" class="f">5000</text><text x="24.048" y="1.67" class="f">aws-machine</text></symbol><symbol id="7"><text y="1.67" class="f">Running</text><text x="8.016" y="1.67" class="f">pre-create</text><text x="19.038" y="1.67" class="f">checks...</text></symbol><symbol id="8"><text y="1.67" class="f">Creating</text><text x="9.018" y="1.67" class="f">machine...</text></symbol><symbol id="9"><text y="1.67" class="f">(aws-machine)</text><text x="14.028" y="1.67" class="f">Launching</text><text x="24.048" y="1.67" class="f">instance...</text></symbol><symbol id="10"><text y="1.67" class="f">Waiting</text><text x="8.016" y="1.67" class="f">for</text><text x="12.024" y="1.67" class="f">machine</text><text x="20.04" y="1.67" class="f">to</text><text x="23.046" y="1.67" class="f">be</text><text x="26.052" y="1.67" class="f">running,</text><text x="35.07" y="1.67" class="f">this</text><text x="40.08" y="1.67" class="f">may</text><text x="44.088" y="1.67" class="f">take</text><text x="49.098" y="1.67" class="f">a</text><text x="51.102" y="1.67" class="f">few</text><text x="55.11" y="1.67" class="f">minutes...</text></symbol><symbol id="11"><text y="1.67" class="f">Detecting</text><text x="10.02" y="1.67" class="f">operating</text><text x="20.04" y="1.67" class="f">system</text><text x="27.054" y="1.67" class="f">of</text><text x="30.06" y="1.67" class="f">created</text><text x="38.076" y="1.67" class="f">instance...</text></symbol><symbol id="12"><text y="1.67" class="f">Waiting</text><text x="8.016" y="1.67" class="f">for</text><text x="12.024" y="1.67" class="f">SSH</text><text x="16.032" y="1.67" class="f">to</text><text x="19.038" y="1.67" class="f">be</text><text x="22.044" y="1.67" class="f">available...</text></symbol><symbol id="13"><text y="1.67" class="f">Detecting</text><text x="10.02" y="1.67" class="f">the</text><text x="14.028" y="1.67" class="f">provisioner...</text></symbol><symbol id="14"><text y="1.67" class="f">Provisioning</text><text x="13.026" y="1.67" class="f">with</text><text x="18.036" y="1.67" class="f">ubuntu(systemd)...</text></symbol><symbol id="2"><text x="1.002" y="1.67" class="c">*</text><text x="3.006" y="1.67" class="f">Found</text><text x="9.018" y="1.67" class="f">existing</text><text x="18.036" y="1.67" class="f">ssh-agent:</text><text x="29.058" y="1.67" class="e">14875</text></symbol><symbol id="16"><text y="1.67" class="f">Copying</text><text x="8.016" y="1.67" class="f">certs</text><text x="14.028" y="1.67" class="f">to</text><text x="17.034" y="1.67" class="f">the</text><text x="21.042" y="1.67" class="f">local</text><text x="27.054" y="1.67" class="f">machine</text><text x="35.07" y="1.67" class="f">directory...</text></symbol><symbol id="17"><text y="1.67" class="f">Copying</text><text x="8.016" y="1.67" class="f">certs</text><text x="14.028" y="1.67" class="f">to</text><text x="17.034" y="1.67" class="f">the</text><text x="21.042" y="1.67" class="f">remote</text><text x="28.056" y="1.67" class="f">machine...</text></symbol><symbol id="18"><text y="1.67" class="f">Setting</text><text x="8.016" y="1.67" class="f">Docker</text><text x="15.03" y="1.67" class="f">configuration</text><text x="29.058" y="1.67" class="f">on</text><text x="32.064" y="1.67" class="f">the</text><text x="36.072" y="1.67" class="f">remote</text><text x="43.086" y="1.67" class="f">daemon...</text></symbol><symbol id="19"><text y="1.67" class="f">Checking</text><text x="9.018" y="1.67" class="f">connection</text><text x="20.04" y="1.67" class="f">to</text><text x="23.046" y="1.67" class="f">Docker...</text></symbol><symbol id="20"><text y="1.67" class="f">Docker</text><text x="7.014" y="1.67" class="f">is</text><text x="10.02" y="1.67" class="f">up</text><text x="13.026" y="1.67" class="f">and</text><text x="17.034" y="1.67" class="f">running!</text></symbol><symbol id="21"><text y="1.67" class="f">To</text><text x="3.006" y="1.67" class="f">see</text><text x="7.014" y="1.67" class="f">how</text><text x="11.022" y="1.67" class="f">to</text><text x="14.028" y="1.67" class="f">connect</text><text x="22.044" y="1.67" class="f">your</text><text x="27.054" y="1.67" class="f">Docker</text><text x="34.068" y="1.67" class="f">Client</text><text x="41.082" y="1.67" class="f">to</text><text x="44.088" y="1.67" class="f">the</text><text x="48.096" y="1.67" class="f">Docker</text><text x="55.11" y="1.67" class="f">Engine</text><text x="62.124" y="1.67" class="f">running</text><text x="70.14" y="1.67" class="f">on</text><text x="73.146" y="1.67" class="f">this</text><text x="78.156" y="1.67" class="f">virtual</text><text x="86.172" y="1.67" class="f">machine,</text><text x="95.19" y="1.67" class="f">run:</text><text x="100.2" y="1.67" class="f">docker-machine</text><text x="115.23" y="1.67" class="f">env</text><text x="119.238" y="1.67" class="f">a</text></symbol><symbol id="22"><text y="1.67" class="f">ws-machine</text></symbol><symbol id="23"><text y="1.67" class="c">shabie</text><text x="6.012" y="1.67" class="f">:</text><text x="7.014" y="1.67" class="g">~/Projects/containers/section2</text><text x="37.074" y="1.67" class="h">(master)</text><text x="45.09" y="1.67" class="f">$</text><text x="47.094" y="1.67" class="f">docker-machine</text></symbol><symbol id="24"><text y="1.67" class="c">shabie</text><text x="6.012" y="1.67" class="f">:</text><text x="7.014" y="1.67" class="g">~/Projects/containers/section2</text><text x="37.074" y="1.67" class="h">(master)</text><text x="45.09" y="1.67" class="f">$</text><text x="47.094" y="1.67" class="f">docker-machine</text><text x="62.124" y="1.67" class="f">ls</text></symbol><symbol id="25"><text y="1.67" class="f">NAME</text><text x="14.028" y="1.67" class="f">ACTIVE</text><text x="23.046" y="1.67" class="f">DRIVER</text><text x="35.07" y="1.67" class="f">STATE</text><text x="45.09" y="1.67" class="f">URL</text><text x="71.142" y="1.67" class="f">SWARM</text><text x="79.158" y="1.67" class="f">DOCKER</text><text x="91.182" y="1.67" class="f">ERRORS</text></symbol><symbol id="26"><text y="1.67" class="f">aws-machine</text><text x="14.028" y="1.67" class="f">-</text><text x="23.046" y="1.67" class="f">amazonec2</text><text x="35.07" y="1.67" class="f">Running</text><text x="45.09" y="1.67" class="f">tcp://34.243.93.95:2376</text><text x="79.158" y="1.67" class="f">v19.03.11</text></symbol><symbol id="27"><text y="1.67" class="c">shabie</text><text x="6.012" y="1.67" class="f">:</text><text x="7.014" y="1.67" class="g">~/Projects/containers/section2</text><text x="37.074" y="1.67" class="h">(master)</text><text x="45.09" y="1.67" class="f">$</text><text x="47.094" y="1.67" class="f">exit</text></symbol><symbol id="a"><path fill="transparent" d="M0 0h120v31H0z"/></symbol><symbol id="b"><path fill="#6f7683" d="M0 0h1.102v2.171H0z"/></symbol></defs><path class="a" d="M0 0h120v65.13H0z"/><g style="animation-duration:20.094411000000026s;animation-iteration-count:infinite;animation-name:k;animation-timing-function:steps(1,end)"><svg width="6000"><svg><use xlink:href="#a"/><use xlink:href="#b" x="-.004"/></svg><svg x="120"><use xlink:href="#a"/><use xlink:href="#b" x="-.004" y="4.317"/><use xlink:href="#1" y="2.171"/></svg><svg x="240"><use xlink:href="#a"/><use xlink:href="#b" x="-.004" y="6.488"/><use xlink:href="#1" y="2.171"/><use xlink:href="#2" y="4.342"/></svg><svg x="360"><use xlink:href="#a"/><use xlink:href="#b" x="-.004" y="8.659"/><use xlink:href="#1" y="2.171"/><use xlink:href="#2" y="4.342"/><use xlink:href="#3" y="6.513"/></svg><svg x="480"><use xlink:href="#a"/><use xlink:href="#b" x="-.004" y="10.83"/><use xlink:href="#1" y="2.171"/><use xlink:href="#2" y="4.342"/><use xlink:href="#3" y="6.513"/></svg><svg x="600"><use xlink:href="#a"/><use xlink:href="#b" x="46.996" y="10.83"/><use xlink:href="#1" y="2.171"/><use xlink:href="#2" y="4.342"/><use xlink:href="#3" y="6.513"/><use xlink:href="#4" y="10.855"/></svg><svg x="720"><use xlink:href="#a"/><use xlink:href="#b" x="34.996" y="13.001"/><use xlink:href="#1" y="2.171"/><use xlink:href="#2" y="4.342"/><use xlink:href="#3" y="6.513"/><use xlink:href="#5" y="10.855"/><use xlink:href="#6" y="13.026"/></svg><svg x="840"><use xlink:href="#a"/><use xlink:href="#b" x="-.004" y="15.172"/><use xlink:href="#1" y="2.171"/><use xlink:href="#2" y="4.342"/><use xlink:href="#3" y="6.513"/><use xlink:href="#5" y="10.855"/><use xlink:href="#6" y="13.026"/></svg><svg x="960"><use xlink:href="#a"/><use xlink:href="#b" x="-.004" y="17.343"/><use xlink:href="#1" y="2.171"/><use xlink:href="#2" y="4.342"/><use xlink:href="#3" y="6.513"/><use xlink:href="#5" y="10.855"/><use xlink:href="#6" y="13.026"/><use xlink:href="#7" y="15.197"/></svg><svg x="1080"><use xlink:href="#a"/><use xlink:href="#b" x="-.004" y="19.514"/><use xlink:href="#1" y="2.171"/><use xlink:href="#2" y="4.342"/><use xlink:href="#3" y="6.513"/><use xlink:href="#5" y="10.855"/><use xlink:href="#6" y="13.026"/><use xlink:href="#7" y="15.197"/><use xlink:href="#8" y="17.368"/></svg><svg x="1200"><use xlink:href="#a"/><use xlink:href="#b" x="-.004" y="21.685"/><use xlink:href="#1" y="2.171"/><use xlink:href="#2" y="4.342"/><use xlink:href="#3" y="6.513"/><use xlink:href="#5" y="10.855"/><use xlink:href="#6" y="13.026"/><use xlink:href="#7" y="15.197"/><use xlink:href="#8" y="17.368"/><use xlink:href="#9" y="19.539"/></svg><svg x="1320"><use xlink:href="#a"/><use xlink:href="#b" x="-.004" y="23.856"/><use xlink:href="#1" y="2.171"/><use xlink:href="#2" y="4.342"/><use xlink:href="#3" y="6.513"/><use xlink:href="#5" y="10.855"/><use xlink:href="#6" y="13.026"/><use xlink:href="#7" y="15.197"/><use xlink:href="#8" y="17.368"/><use xlink:href="#9" y="19.539"/><use xlink:href="#10" y="21.71"/></svg><svg x="1440"><use xlink:href="#a"/><use xlink:href="#b" x="-.004" y="28.198"/><use xlink:href="#1" y="2.171"/><use xlink:href="#2" y="4.342"/><use xlink:href="#3" y="6.513"/><use xlink:href="#5" y="10.855"/><use xlink:href="#6" y="13.026"/><use xlink:href="#7" y="15.197"/><use xlink:href="#8" y="17.368"/><use xlink:href="#9" y="19.539"/><use xlink:href="#10" y="21.71"/><use xlink:href="#11" y="23.881"/><use xlink:href="#12" y="26.052"/></svg><svg x="1560"><use xlink:href="#a"/><use xlink:href="#b" x="-.004" y="30.369"/><use xlink:href="#1" y="2.171"/><use xlink:href="#2" y="4.342"/><use xlink:href="#3" y="6.513"/><use xlink:href="#5" y="10.855"/><use xlink:href="#6" y="13.026"/><use xlink:href="#7" y="15.197"/><use xlink:href="#8" y="17.368"/><use xlink:href="#9" y="19.539"/><use xlink:href="#10" y="21.71"/><use xlink:href="#11" y="23.881"/><use xlink:href="#12" y="26.052"/><use xlink:href="#13" y="28.223"/></svg><svg x="1680"><use xlink:href="#a"/><use xlink:href="#b" x="-.004" y="32.54"/><use xlink:href="#1" y="2.171"/><use xlink:href="#2" y="4.342"/><use xlink:href="#3" y="6.513"/><use xlink:href="#5" y="10.855"/><use xlink:href="#6" y="13.026"/><use xlink:href="#7" y="15.197"/><use xlink:href="#8" y="17.368"/><use xlink:href="#9" y="19.539"/><use xlink:href="#10" y="21.71"/><use xlink:href="#11" y="23.881"/><use xlink:href="#12" y="26.052"/><use xlink:href="#13" y="28.223"/><use xlink:href="#14" y="30.394"/></svg><svg x="1800"><use xlink:href="#a"/><use xlink:href="#b" x="-.004" y="34.711"/><use xlink:href="#1" y="2.171"/><use xlink:href="#2" y="4.342"/><use xlink:href="#3" y="6.513"/><use xlink:href="#5" y="10.855"/><use xlink:href="#6" y="13.026"/><use xlink:href="#7" y="15.197"/><use xlink:href="#8" y="17.368"/><use xlink:href="#9" y="19.539"/><use xlink:href="#10" y="21.71"/><use xlink:href="#11" y="23.881"/><use xlink:href="#12" y="26.052"/><use xlink:href="#13" y="28.223"/><use xlink:href="#14" y="30.394"/><use xlink:href="#15" y="32.565"/></svg><svg x="1920"><use xlink:href="#a"/><use xlink:href="#b" x="-.004" y="36.882"/><use xlink:href="#1" y="2.171"/><use xlink:href="#2" y="4.342"/><use xlink:href="#3" y="6.513"/><use xlink:href="#5" y="10.855"/><use xlink:href="#6" y="13.026"/><use xlink:href="#7" y="15.197"/><use xlink:href="#8" y="17.368"/><use xlink:href="#9" y="19.539"/><use xlink:href="#10" y="21.71"/><use xlink:href="#11" y="23.881"/><use xlink:href="#12" y="26.052"/><use xlink:href="#13" y="28.223"/><use xlink:href="#14" y="30.394"/><use xlink:href="#15" y="32.565"/><use xlink:href="#16" y="34.736"/></svg><svg x="2040"><use xlink:href="#a"/><use xlink:href="#b" x="-.004" y="39.053"/><use xlink:href="#1" y="2.171"/><use xlink:href="#2" y="4.342"/><use xlink:href="#3" y="6.513"/><use xlink:href="#5" y="10.855"/><use xlink:href="#6" y="13.026"/><use xlink:href="#7" y="15.197"/><use xlink:href="#8" y="17.368"/><use xlink:href="#9" y="19.539"/><use xlink:href="#10" y="21.71"/><use xlink:href="#11" y="23.881"/><use xlink:href="#12" y="26.052"/><use xlink:href="#13" y="28.223"/><use xlink:href="#14" y="30.394"/><use xlink:href="#15" y="32.565"/><use xlink:href="#16" y="34.736"/><use xlink:href="#17" y="36.907"/></svg><svg x="2160"><use xlink:href="#a"/><use xlink:href="#b" x="-.004" y="41.224"/><use xlink:href="#1" y="2.171"/><use xlink:href="#2" y="4.342"/><use xlink:href="#3" y="6.513"/><use xlink:href="#5" y="10.855"/><use xlink:href="#6" y="13.026"/><use xlink:href="#7" y="15.197"/><use xlink:href="#8" y="17.368"/><use xlink:href="#9" y="19.539"/><use xlink:href="#10" y="21.71"/><use xlink:href="#11" y="23.881"/><use xlink:href="#12" y="26.052"/><use xlink:href="#13" y="28.223"/><use xlink:href="#14" y="30.394"/><use xlink:href="#15" y="32.565"/><use xlink:href="#16" y="34.736"/><use xlink:href="#17" y="36.907"/><use xlink:href="#18" y="39.078"/></svg><svg x="2280"><use xlink:href="#a"/><use xlink:href="#b" x="-.004" y="43.395"/><use xlink:href="#1" y="2.171"/><use xlink:href="#2" y="4.342"/><use xlink:href="#3" y="6.513"/><use xlink:href="#5" y="10.855"/><use xlink:href="#6" y="13.026"/><use xlink:href="#7" y="15.197"/><use xlink:href="#8" y="17.368"/><use xlink:href="#9" y="19.539"/><use xlink:href="#10" y="21.71"/><use xlink:href="#11" y="23.881"/><use xlink:href="#12" y="26.052"/><use xlink:href="#13" y="28.223"/><use xlink:href="#14" y="30.394"/><use xlink:href="#15" y="32.565"/><use xlink:href="#16" y="34.736"/><use xlink:href="#17" y="36.907"/><use xlink:href="#18" y="39.078"/><use xlink:href="#19" y="41.249"/></svg><svg x="2400"><use xlink:href="#a"/><use xlink:href="#b" x="-.004" y="45.566"/><use xlink:href="#1" y="2.171"/><use xlink:href="#2" y="4.342"/><use xlink:href="#3" y="6.513"/><use xlink:href="#5" y="10.855"/><use xlink:href="#6" y="13.026"/><use xlink:href="#7" y="15.197"/><use xlink:href="#8" y="17.368"/><use xlink:href="#9" y="19.539"/><use xlink:href="#10" y="21.71"/><use xlink:href="#11" y="23.881"/><use xlink:href="#12" y="26.052"/><use xlink:href="#13" y="28.223"/><use xlink:href="#14" y="30.394"/><use xlink:href="#15" y="32.565"/><use xlink:href="#16" y="34.736"/><use xlink:href="#17" y="36.907"/><use xlink:href="#18" y="39.078"/><use xlink:href="#19" y="41.249"/><use xlink:href="#20" y="43.42"/></svg><svg x="2520"><use xlink:href="#a"/><use xlink:href="#b" x="-.004" y="49.908"/><use xlink:href="#1" y="2.171"/><use xlink:href="#2" y="4.342"/><use xlink:href="#3" y="6.513"/><use xlink:href="#5" y="10.855"/><use xlink:href="#6" y="13.026"/><use xlink:href="#7" y="15.197"/><use xlink:href="#8" y="17.368"/><use xlink:href="#9" y="19.539"/><use xlink:href="#10" y="21.71"/><use xlink:href="#11" y="23.881"/><use xlink:href="#12" y="26.052"/><use xlink:href="#13" y="28.223"/><use xlink:href="#14" y="30.394"/><use xlink:href="#15" y="32.565"/><use xlink:href="#16" y="34.736"/><use xlink:href="#17" y="36.907"/><use xlink:href="#18" y="39.078"/><use xlink:href="#19" y="41.249"/><use xlink:href="#20" y="43.42"/><use xlink:href="#21" y="45.591"/><use xlink:href="#22" y="47.762"/></svg><svg x="2640"><use xlink:href="#a"/><use xlink:href="#b" x="46.996" y="49.908"/><use xlink:href="#1" y="2.171"/><use xlink:href="#2" y="4.342"/><use xlink:href="#3" y="6.513"/><use xlink:href="#5" y="10.855"/><use xlink:href="#6" y="13.026"/><use xlink:href="#7" y="15.197"/><use xlink:href="#8" y="17.368"/><use xlink:href="#9" y="19.539"/><use xlink:href="#10" y="21.71"/><use xlink:href="#11" y="23.881"/><use xlink:href="#12" y="26.052"/><use xlink:href="#13" y="28.223"/><use xlink:href="#14" y="30.394"/><use xlink:href="#15" y="32.565"/><use xlink:href="#16" y="34.736"/><use xlink:href="#17" y="36.907"/><use xlink:href="#18" y="39.078"/><use xlink:href="#19" y="41.249"/><use xlink:href="#20" y="43.42"/><use xlink:href="#21" y="45.591"/><use xlink:href="#22" y="47.762"/><use xlink:href="#4" y="49.933"/></svg><svg x="2760"><use xlink:href="#a"/><use xlink:href="#b" x="47.996" y="49.908"/><use xlink:href="#1" y="2.171"/><use xlink:href="#2" y="4.342"/><use xlink:href="#3" y="6.513"/><use xlink:href="#5" y="10.855"/><use xlink:href="#6" y="13.026"/><use xlink:href="#7" y="15.197"/><use xlink:href="#8" y="17.368"/><use xlink:href="#9" y="19.539"/><use xlink:href="#10" y="21.71"/><use xlink:href="#11" y="23.881"/><use xlink:href="#12" y="26.052"/><use xlink:href="#13" y="28.223"/><use xlink:href="#14" y="30.394"/><use xlink:href="#15" y="32.565"/><use xlink:href="#16" y="34.736"/><use xlink:href="#17" y="36.907"/><use xlink:href="#18" y="39.078"/><use xlink:href="#19" y="41.249"/><use xlink:href="#20" y="43.42"/><use xlink:href="#21" y="45.591"/><use xlink:href="#22" y="47.762"/><text y="51.603" class="c">shabie</text><text x="6.012" y="51.603" class="f">:</text><text x="7.014" y="51.603" class="g">~/Projects/containers/section2</text><text x="37.074" y="51.603" class="h">(master)</text><text x="45.09" y="51.603" class="f">$</text><text x="47.094" y="51.603" class="f">d</text></svg><svg x="2880"><use xlink:href="#a"/><use xlink:href="#b" x="48.996" y="49.908"/><use xlink:href="#1" y="2.171"/><use xlink:href="#2" y="4.342"/><use xlink:href="#3" y="6.513"/><use xlink:href="#5" y="10.855"/><use xlink:href="#6" y="13.026"/><use xlink:href="#7" y="15.197"/><use xlink:href="#8" y="17.368"/><use xlink:href="#9" y="19.539"/><use xlink:href="#10" y="21.71"/><use xlink:href="#11" y="23.881"/><use xlink:href="#12" y="26.052"/><use xlink:href="#13" y="28.223"/><use xlink:href="#14" y="30.394"/><use xlink:href="#15" y="32.565"/><use xlink:href="#16" y="34.736"/><use xlink:href="#17" y="36.907"/><use xlink:href="#18" y="39.078"/><use xlink:href="#19" y="41.249"/><use xlink:href="#20" y="43.42"/><use xlink:href="#21" y="45.591"/><use xlink:href="#22" y="47.762"/><text y="51.603" class="c">shabie</text><text x="6.012" y="51.603" class="f">:</text><text x="7.014" y="51.603" class="g">~/Projects/containers/section2</text><text x="37.074" y="51.603" class="h">(master)</text><text x="45.09" y="51.603" class="f">$</text><text x="47.094" y="51.603" class="f">do</text></svg><svg x="3000"><use xlink:href="#a"/><use xlink:href="#b" x="49.996" y="49.908"/><use xlink:href="#1" y="2.171"/><use xlink:href="#2" y="4.342"/><use xlink:href="#3" y="6.513"/><use xlink:href="#5" y="10.855"/><use xlink:href="#6" y="13.026"/><use xlink:href="#7" y="15.197"/><use xlink:href="#8" y="17.368"/><use xlink:href="#9" y="19.539"/><use xlink:href="#10" y="21.71"/><use xlink:href="#11" y="23.881"/><use xlink:href="#12" y="26.052"/><use xlink:href="#13" y="28.223"/><use xlink:href="#14" y="30.394"/><use xlink:href="#15" y="32.565"/><use xlink:href="#16" y="34.736"/><use xlink:href="#17" y="36.907"/><use xlink:href="#18" y="39.078"/><use xlink:href="#19" y="41.249"/><use xlink:href="#20" y="43.42"/><use xlink:href="#21" y="45.591"/><use xlink:href="#22" y="47.762"/><text y="51.603" class="c">shabie</text><text x="6.012" y="51.603" class="f">:</text><text x="7.014" y="51.603" class="g">~/Projects/containers/section2</text><text x="37.074" y="51.603" class="h">(master)</text><text x="45.09" y="51.603" class="f">$</text><text x="47.094" y="51.603" class="f">doc</text></svg><svg x="3120"><use xlink:href="#a"/><use xlink:href="#b" x="50.996" y="49.908"/><use xlink:href="#1" y="2.171"/><use xlink:href="#2" y="4.342"/><use xlink:href="#3" y="6.513"/><use xlink:href="#5" y="10.855"/><use xlink:href="#6" y="13.026"/><use xlink:href="#7" y="15.197"/><use xlink:href="#8" y="17.368"/><use xlink:href="#9" y="19.539"/><use xlink:href="#10" y="21.71"/><use xlink:href="#11" y="23.881"/><use xlink:href="#12" y="26.052"/><use xlink:href="#13" y="28.223"/><use xlink:href="#14" y="30.394"/><use xlink:href="#15" y="32.565"/><use xlink:href="#16" y="34.736"/><use xlink:href="#17" y="36.907"/><use xlink:href="#18" y="39.078"/><use xlink:href="#19" y="41.249"/><use xlink:href="#20" y="43.42"/><use xlink:href="#21" y="45.591"/><use xlink:href="#22" y="47.762"/><text y="51.603" class="c">shabie</text><text x="6.012" y="51.603" class="f">:</text><text x="7.014" y="51.603" class="g">~/Projects/containers/section2</text><text x="37.074" y="51.603" class="h">(master)</text><text x="45.09" y="51.603" class="f">$</text><text x="47.094" y="51.603" class="f">dock</text></svg><svg x="3240"><use xlink:href="#a"/><use xlink:href="#b" x="51.996" y="49.908"/><use xlink:href="#1" y="2.171"/><use xlink:href="#2" y="4.342"/><use xlink:href="#3" y="6.513"/><use xlink:href="#5" y="10.855"/><use xlink:href="#6" y="13.026"/><use xlink:href="#7" y="15.197"/><use xlink:href="#8" y="17.368"/><use xlink:href="#9" y="19.539"/><use xlink:href="#10" y="21.71"/><use xlink:href="#11" y="23.881"/><use xlink:href="#12" y="26.052"/><use xlink:href="#13" y="28.223"/><use xlink:href="#14" y="30.394"/><use xlink:href="#15" y="32.565"/><use xlink:href="#16" y="34.736"/><use xlink:href="#17" y="36.907"/><use xlink:href="#18" y="39.078"/><use xlink:href="#19" y="41.249"/><use xlink:href="#20" y="43.42"/><use xlink:href="#21" y="45.591"/><use xlink:href="#22" y="47.762"/><text y="51.603" class="c">shabie</text><text x="6.012" y="51.603" class="f">:</text><text x="7.014" y="51.603" class="g">~/Projects/containers/section2</text><text x="37.074" y="51.603" class="h">(master)</text><text x="45.09" y="51.603" class="f">$</text><text x="47.094" y="51.603" class="f">docke</text></svg><svg x="3360"><use xlink:href="#a"/><use xlink:href="#b" x="52.996" y="49.908"/><use xlink:href="#1" y="2.171"/><use xlink:href="#2" y="4.342"/><use xlink:href="#3" y="6.513"/><use xlink:href="#5" y="10.855"/><use xlink:href="#6" y="13.026"/><use xlink:href="#7" y="15.197"/><use xlink:href="#8" y="17.368"/><use xlink:href="#9" y="19.539"/><use xlink:href="#10" y="21.71"/><use xlink:href="#11" y="23.881"/><use xlink:href="#12" y="26.052"/><use xlink:href="#13" y="28.223"/><use xlink:href="#14" y="30.394"/><use xlink:href="#15" y="32.565"/><use xlink:href="#16" y="34.736"/><use xlink:href="#17" y="36.907"/><use xlink:href="#18" y="39.078"/><use xlink:href="#19" y="41.249"/><use xlink:href="#20" y="43.42"/><use xlink:href="#21" y="45.591"/><use xlink:href="#22" y="47.762"/><text y="51.603" class="c">shabie</text><text x="6.012" y="51.603" class="f">:</text><text x="7.014" y="51.603" class="g">~/Projects/containers/section2</text><text x="37.074" y="51.603" class="h">(master)</text><text x="45.09" y="51.603" class="f">$</text><text x="47.094" y="51.603" class="f">docker</text></svg><svg x="3480"><use xlink:href="#a"/><use xlink:href="#b" x="53.996" y="49.908"/><use xlink:href="#1" y="2.171"/><use xlink:href="#2" y="4.342"/><use xlink:href="#3" y="6.513"/><use xlink:href="#5" y="10.855"/><use xlink:href="#6" y="13.026"/><use xlink:href="#7" y="15.197"/><use xlink:href="#8" y="17.368"/><use xlink:href="#9" y="19.539"/><use xlink:href="#10" y="21.71"/><use xlink:href="#11" y="23.881"/><use xlink:href="#12" y="26.052"/><use xlink:href="#13" y="28.223"/><use xlink:href="#14" y="30.394"/><use xlink:href="#15" y="32.565"/><use xlink:href="#16" y="34.736"/><use xlink:href="#17" y="36.907"/><use xlink:href="#18" y="39.078"/><use xlink:href="#19" y="41.249"/><use xlink:href="#20" y="43.42"/><use xlink:href="#21" y="45.591"/><use xlink:href="#22" y="47.762"/><text y="51.603" class="c">shabie</text><text x="6.012" y="51.603" class="f">:</text><text x="7.014" y="51.603" class="g">~/Projects/containers/section2</text><text x="37.074" y="51.603" class="h">(master)</text><text x="45.09" y="51.603" class="f">$</text><text x="47.094" y="51.603" class="f">docker-</text></svg><svg x="3600"><use xlink:href="#a"/><use xlink:href="#b" x="54.996" y="49.908"/><use xlink:href="#1" y="2.171"/><use xlink:href="#2" y="4.342"/><use xlink:href="#3" y="6.513"/><use xlink:href="#5" y="10.855"/><use xlink:href="#6" y="13.026"/><use xlink:href="#7" y="15.197"/><use xlink:href="#8" y="17.368"/><use xlink:href="#9" y="19.539"/><use xlink:href="#10" y="21.71"/><use xlink:href="#11" y="23.881"/><use xlink:href="#12" y="26.052"/><use xlink:href="#13" y="28.223"/><use xlink:href="#14" y="30.394"/><use xlink:href="#15" y="32.565"/><use xlink:href="#16" y="34.736"/><use xlink:href="#17" y="36.907"/><use xlink:href="#18" y="39.078"/><use xlink:href="#19" y="41.249"/><use xlink:href="#20" y="43.42"/><use xlink:href="#21" y="45.591"/><use xlink:href="#22" y="47.762"/><text y="51.603" class="c">shabie</text><text x="6.012" y="51.603" class="f">:</text><text x="7.014" y="51.603" class="g">~/Projects/containers/section2</text><text x="37.074" y="51.603" class="h">(master)</text><text x="45.09" y="51.603" class="f">$</text><text x="47.094" y="51.603" class="f">docker-m</text></svg><svg x="3720"><use xlink:href="#a"/><use xlink:href="#b" x="55.996" y="49.908"/><use xlink:href="#1" y="2.171"/><use xlink:href="#2" y="4.342"/><use xlink:href="#3" y="6.513"/><use xlink:href="#5" y="10.855"/><use xlink:href="#6" y="13.026"/><use xlink:href="#7" y="15.197"/><use xlink:href="#8" y="17.368"/><use xlink:href="#9" y="19.539"/><use xlink:href="#10" y="21.71"/><use xlink:href="#11" y="23.881"/><use xlink:href="#12" y="26.052"/><use xlink:href="#13" y="28.223"/><use xlink:href="#14" y="30.394"/><use xlink:href="#15" y="32.565"/><use xlink:href="#16" y="34.736"/><use xlink:href="#17" y="36.907"/><use xlink:href="#18" y="39.078"/><use xlink:href="#19" y="41.249"/><use xlink:href="#20" y="43.42"/><use xlink:href="#21" y="45.591"/><use xlink:href="#22" y="47.762"/><text y="51.603" class="c">shabie</text><text x="6.012" y="51.603" class="f">:</text><text x="7.014" y="51.603" class="g">~/Projects/containers/section2</text><text x="37.074" y="51.603" class="h">(master)</text><text x="45.09" y="51.603" class="f">$</text><text x="47.094" y="51.603" class="f">docker-ma</text></svg><svg x="3840"><use xlink:href="#a"/><use xlink:href="#b" x="56.996" y="49.908"/><use xlink:href="#1" y="2.171"/><use xlink:href="#2" y="4.342"/><use xlink:href="#3" y="6.513"/><use xlink:href="#5" y="10.855"/><use xlink:href="#6" y="13.026"/><use xlink:href="#7" y="15.197"/><use xlink:href="#8" y="17.368"/><use xlink:href="#9" y="19.539"/><use xlink:href="#10" y="21.71"/><use xlink:href="#11" y="23.881"/><use xlink:href="#12" y="26.052"/><use xlink:href="#13" y="28.223"/><use xlink:href="#14" y="30.394"/><use xlink:href="#15" y="32.565"/><use xlink:href="#16" y="34.736"/><use xlink:href="#17" y="36.907"/><use xlink:href="#18" y="39.078"/><use xlink:href="#19" y="41.249"/><use xlink:href="#20" y="43.42"/><use xlink:href="#21" y="45.591"/><use xlink:href="#22" y="47.762"/><text y="51.603" class="c">shabie</text><text x="6.012" y="51.603" class="f">:</text><text x="7.014" y="51.603" class="g">~/Projects/containers/section2</text><text x="37.074" y="51.603" class="h">(master)</text><text x="45.09" y="51.603" class="f">$</text><text x="47.094" y="51.603" class="f">docker-mac</text></svg><svg x="3960"><use xlink:href="#a"/><use xlink:href="#b" x="57.996" y="49.908"/><use xlink:href="#1" y="2.171"/><use xlink:href="#2" y="4.342"/><use xlink:href="#3" y="6.513"/><use xlink:href="#5" y="10.855"/><use xlink:href="#6" y="13.026"/><use xlink:href="#7" y="15.197"/><use xlink:href="#8" y="17.368"/><use xlink:href="#9" y="19.539"/><use xlink:href="#10" y="21.71"/><use xlink:href="#11" y="23.881"/><use xlink:href="#12" y="26.052"/><use xlink:href="#13" y="28.223"/><use xlink:href="#14" y="30.394"/><use xlink:href="#15" y="32.565"/><use xlink:href="#16" y="34.736"/><use xlink:href="#17" y="36.907"/><use xlink:href="#18" y="39.078"/><use xlink:href="#19" y="41.249"/><use xlink:href="#20" y="43.42"/><use xlink:href="#21" y="45.591"/><use xlink:href="#22" y="47.762"/><text y="51.603" class="c">shabie</text><text x="6.012" y="51.603" class="f">:</text><text x="7.014" y="51.603" class="g">~/Projects/containers/section2</text><text x="37.074" y="51.603" class="h">(master)</text><text x="45.09" y="51.603" class="f">$</text><text x="47.094" y="51.603" class="f">docker-mach</text></svg><svg x="4080"><use xlink:href="#a"/><use xlink:href="#b" x="58.996" y="49.908"/><use xlink:href="#1" y="2.171"/><use xlink:href="#2" y="4.342"/><use xlink:href="#3" y="6.513"/><use xlink:href="#5" y="10.855"/><use xlink:href="#6" y="13.026"/><use xlink:href="#7" y="15.197"/><use xlink:href="#8" y="17.368"/><use xlink:href="#9" y="19.539"/><use xlink:href="#10" y="21.71"/><use xlink:href="#11" y="23.881"/><use xlink:href="#12" y="26.052"/><use xlink:href="#13" y="28.223"/><use xlink:href="#14" y="30.394"/><use xlink:href="#15" y="32.565"/><use xlink:href="#16" y="34.736"/><use xlink:href="#17" y="36.907"/><use xlink:href="#18" y="39.078"/><use xlink:href="#19" y="41.249"/><use xlink:href="#20" y="43.42"/><use xlink:href="#21" y="45.591"/><use xlink:href="#22" y="47.762"/><text y="51.603" class="c">shabie</text><text x="6.012" y="51.603" class="f">:</text><text x="7.014" y="51.603" class="g">~/Projects/containers/section2</text><text x="37.074" y="51.603" class="h">(master)</text><text x="45.09" y="51.603" class="f">$</text><text x="47.094" y="51.603" class="f">docker-machi</text></svg><svg x="4200"><use xlink:href="#a"/><use xlink:href="#b" x="59.996" y="49.908"/><use xlink:href="#1" y="2.171"/><use xlink:href="#2" y="4.342"/><use xlink:href="#3" y="6.513"/><use xlink:href="#5" y="10.855"/><use xlink:href="#6" y="13.026"/><use xlink:href="#7" y="15.197"/><use xlink:href="#8" y="17.368"/><use xlink:href="#9" y="19.539"/><use xlink:href="#10" y="21.71"/><use xlink:href="#11" y="23.881"/><use xlink:href="#12" y="26.052"/><use xlink:href="#13" y="28.223"/><use xlink:href="#14" y="30.394"/><use xlink:href="#15" y="32.565"/><use xlink:href="#16" y="34.736"/><use xlink:href="#17" y="36.907"/><use xlink:href="#18" y="39.078"/><use xlink:href="#19" y="41.249"/><use xlink:href="#20" y="43.42"/><use xlink:href="#21" y="45.591"/><use xlink:href="#22" y="47.762"/><text y="51.603" class="c">shabie</text><text x="6.012" y="51.603" class="f">:</text><text x="7.014" y="51.603" class="g">~/Projects/containers/section2</text><text x="37.074" y="51.603" class="h">(master)</text><text x="45.09" y="51.603" class="f">$</text><text x="47.094" y="51.603" class="f">docker-machin</text></svg><svg x="4320"><use xlink:href="#a"/><use xlink:href="#b" x="60.996" y="49.908"/><use xlink:href="#1" y="2.171"/><use xlink:href="#2" y="4.342"/><use xlink:href="#3" y="6.513"/><use xlink:href="#5" y="10.855"/><use xlink:href="#6" y="13.026"/><use xlink:href="#7" y="15.197"/><use xlink:href="#8" y="17.368"/><use xlink:href="#9" y="19.539"/><use xlink:href="#10" y="21.71"/><use xlink:href="#11" y="23.881"/><use xlink:href="#12" y="26.052"/><use xlink:href="#13" y="28.223"/><use xlink:href="#14" y="30.394"/><use xlink:href="#15" y="32.565"/><use xlink:href="#16" y="34.736"/><use xlink:href="#17" y="36.907"/><use xlink:href="#18" y="39.078"/><use xlink:href="#19" y="41.249"/><use xlink:href="#20" y="43.42"/><use xlink:href="#21" y="45.591"/><use xlink:href="#22" y="47.762"/><use xlink:href="#23" y="49.933"/></svg><svg x="4440"><use xlink:href="#a"/><use xlink:href="#b" x="61.996" y="49.908"/><use xlink:href="#1" y="2.171"/><use xlink:href="#2" y="4.342"/><use xlink:href="#3" y="6.513"/><use xlink:href="#5" y="10.855"/><use xlink:href="#6" y="13.026"/><use xlink:href="#7" y="15.197"/><use xlink:href="#8" y="17.368"/><use xlink:href="#9" y="19.539"/><use xlink:href="#10" y="21.71"/><use xlink:href="#11" y="23.881"/><use xlink:href="#12" y="26.052"/><use xlink:href="#13" y="28.223"/><use xlink:href="#14" y="30.394"/><use xlink:href="#15" y="32.565"/><use xlink:href="#16" y="34.736"/><use xlink:href="#17" y="36.907"/><use xlink:href="#18" y="39.078"/><use xlink:href="#19" y="41.249"/><use xlink:href="#20" y="43.42"/><use xlink:href="#21" y="45.591"/><use xlink:href="#22" y="47.762"/><use xlink:href="#23" y="49.933"/></svg><svg x="4560"><use xlink:href="#a"/><use xlink:href="#b" x="62.996" y="49.908"/><use xlink:href="#1" y="2.171"/><use xlink:href="#2" y="4.342"/><use xlink:href="#3" y="6.513"/><use xlink:href="#5" y="10.855"/><use xlink:href="#6" y="13.026"/><use xlink:href="#7" y="15.197"/><use xlink:href="#8" y="17.368"/><use xlink:href="#9" y="19.539"/><use xlink:href="#10" y="21.71"/><use xlink:href="#11" y="23.881"/><use xlink:href="#12" y="26.052"/><use xlink:href="#13" y="28.223"/><use xlink:href="#14" y="30.394"/><use xlink:href="#15" y="32.565"/><use xlink:href="#16" y="34.736"/><use xlink:href="#17" y="36.907"/><use xlink:href="#18" y="39.078"/><use xlink:href="#19" y="41.249"/><use xlink:href="#20" y="43.42"/><use xlink:href="#21" y="45.591"/><use xlink:href="#22" y="47.762"/><text y="51.603" class="c">shabie</text><text x="6.012" y="51.603" class="f">:</text><text x="7.014" y="51.603" class="g">~/Projects/containers/section2</text><text x="37.074" y="51.603" class="h">(master)</text><text x="45.09" y="51.603" class="f">$</text><text x="47.094" y="51.603" class="f">docker-machine</text><text x="62.124" y="51.603" class="f">l</text></svg><svg x="4680"><use xlink:href="#a"/><use xlink:href="#b" x="63.996" y="49.908"/><use xlink:href="#1" y="2.171"/><use xlink:href="#2" y="4.342"/><use xlink:href="#3" y="6.513"/><use xlink:href="#5" y="10.855"/><use xlink:href="#6" y="13.026"/><use xlink:href="#7" y="15.197"/><use xlink:href="#8" y="17.368"/><use xlink:href="#9" y="19.539"/><use xlink:href="#10" y="21.71"/><use xlink:href="#11" y="23.881"/><use xlink:href="#12" y="26.052"/><use xlink:href="#13" y="28.223"/><use xlink:href="#14" y="30.394"/><use xlink:href="#15" y="32.565"/><use xlink:href="#16" y="34.736"/><use xlink:href="#17" y="36.907"/><use xlink:href="#18" y="39.078"/><use xlink:href="#19" y="41.249"/><use xlink:href="#20" y="43.42"/><use xlink:href="#21" y="45.591"/><use xlink:href="#22" y="47.762"/><use xlink:href="#24" y="49.933"/></svg><svg x="4800"><use xlink:href="#a"/><use xlink:href="#b" x="-.004" y="52.079"/><use xlink:href="#1" y="2.171"/><use xlink:href="#2" y="4.342"/><use xlink:href="#3" y="6.513"/><use xlink:href="#5" y="10.855"/><use xlink:href="#6" y="13.026"/><use xlink:href="#7" y="15.197"/><use xlink:href="#8" y="17.368"/><use xlink:href="#9" y="19.539"/><use xlink:href="#10" y="21.71"/><use xlink:href="#11" y="23.881"/><use xlink:href="#12" y="26.052"/><use xlink:href="#13" y="28.223"/><use xlink:href="#14" y="30.394"/><use xlink:href="#15" y="32.565"/><use xlink:href="#16" y="34.736"/><use xlink:href="#17" y="36.907"/><use xlink:href="#18" y="39.078"/><use xlink:href="#19" y="41.249"/><use xlink:href="#20" y="43.42"/><use xlink:href="#21" y="45.591"/><use xlink:href="#22" y="47.762"/><use xlink:href="#24" y="49.933"/></svg><svg x="4920"><use xlink:href="#a"/><use xlink:href="#b" x="34.996" y="54.25"/><use xlink:href="#1" y="2.171"/><use xlink:href="#2" y="4.342"/><use xlink:href="#3" y="6.513"/><use xlink:href="#5" y="10.855"/><use xlink:href="#6" y="13.026"/><use xlink:href="#7" y="15.197"/><use xlink:href="#8" y="17.368"/><use xlink:href="#9" y="19.539"/><use xlink:href="#10" y="21.71"/><use xlink:href="#11" y="23.881"/><use xlink:href="#12" y="26.052"/><use xlink:href="#13" y="28.223"/><use xlink:href="#14" y="30.394"/><use xlink:href="#15" y="32.565"/><use xlink:href="#16" y="34.736"/><use xlink:href="#17" y="36.907"/><use xlink:href="#18" y="39.078"/><use xlink:href="#19" y="41.249"/><use xlink:href="#20" y="43.42"/><use xlink:href="#21" y="45.591"/><use xlink:href="#22" y="47.762"/><use xlink:href="#24" y="49.933"/><use xlink:href="#25" y="52.104"/><text y="55.945" class="f">aws-machine</text><text x="14.028" y="55.945" class="f">-</text><text x="23.046" y="55.945" class="f">amazonec2</text></svg><svg x="5040"><use xlink:href="#a"/><use xlink:href="#b" x="-.004" y="56.421"/><use xlink:href="#1" y="2.171"/><use xlink:href="#2" y="4.342"/><use xlink:href="#3" y="6.513"/><use xlink:href="#5" y="10.855"/><use xlink:href="#6" y="13.026"/><use xlink:href="#7" y="15.197"/><use xlink:href="#8" y="17.368"/><use xlink:href="#9" y="19.539"/><use xlink:href="#10" y="21.71"/><use xlink:href="#11" y="23.881"/><use xlink:href="#12" y="26.052"/><use xlink:href="#13" y="28.223"/><use xlink:href="#14" y="30.394"/><use xlink:href="#15" y="32.565"/><use xlink:href="#16" y="34.736"/><use xlink:href="#17" y="36.907"/><use xlink:href="#18" y="39.078"/><use xlink:href="#19" y="41.249"/><use xlink:href="#20" y="43.42"/><use xlink:href="#21" y="45.591"/><use xlink:href="#22" y="47.762"/><use xlink:href="#24" y="49.933"/><use xlink:href="#25" y="52.104"/><use xlink:href="#26" y="54.275"/></svg><svg x="5160"><use xlink:href="#a"/><use xlink:href="#b" x="46.996" y="56.421"/><use xlink:href="#1" y="2.171"/><use xlink:href="#2" y="4.342"/><use xlink:href="#3" y="6.513"/><use xlink:href="#5" y="10.855"/><use xlink:href="#6" y="13.026"/><use xlink:href="#7" y="15.197"/><use xlink:href="#8" y="17.368"/><use xlink:href="#9" y="19.539"/><use xlink:href="#10" y="21.71"/><use xlink:href="#11" y="23.881"/><use xlink:href="#12" y="26.052"/><use xlink:href="#13" y="28.223"/><use xlink:href="#14" y="30.394"/><use xlink:href="#15" y="32.565"/><use xlink:href="#16" y="34.736"/><use xlink:href="#17" y="36.907"/><use xlink:href="#18" y="39.078"/><use xlink:href="#19" y="41.249"/><use xlink:href="#20" y="43.42"/><use xlink:href="#21" y="45.591"/><use xlink:href="#22" y="47.762"/><use xlink:href="#24" y="49.933"/><use xlink:href="#25" y="52.104"/><use xlink:href="#26" y="54.275"/><use xlink:href="#4" y="56.446"/></svg><svg x="5280"><use xlink:href="#a"/><use xlink:href="#b" x="47.996" y="56.421"/><use xlink:href="#1" y="2.171"/><use xlink:href="#2" y="4.342"/><use xlink:href="#3" y="6.513"/><use xlink:href="#5" y="10.855"/><use xlink:href="#6" y="13.026"/><use xlink:href="#7" y="15.197"/><use xlink:href="#8" y="17.368"/><use xlink:href="#9" y="19.539"/><use xlink:href="#10" y="21.71"/><use xlink:href="#11" y="23.881"/><use xlink:href="#12" y="26.052"/><use xlink:href="#13" y="28.223"/><use xlink:href="#14" y="30.394"/><use xlink:href="#15" y="32.565"/><use xlink:href="#16" y="34.736"/><use xlink:href="#17" y="36.907"/><use xlink:href="#18" y="39.078"/><use xlink:href="#19" y="41.249"/><use xlink:href="#20" y="43.42"/><use xlink:href="#21" y="45.591"/><use xlink:href="#22" y="47.762"/><use xlink:href="#24" y="49.933"/><use xlink:href="#25" y="52.104"/><use xlink:href="#26" y="54.275"/><text y="58.116" class="c">shabie</text><text x="6.012" y="58.116" class="f">:</text><text x="7.014" y="58.116" class="g">~/Projects/containers/section2</text><text x="37.074" y="58.116" class="h">(master)</text><text x="45.09" y="58.116" class="f">$</text><text x="47.094" y="58.116" class="f">e</text></svg><svg x="5400"><use xlink:href="#a"/><use xlink:href="#b" x="48.996" y="56.421"/><use xlink:href="#1" y="2.171"/><use xlink:href="#2" y="4.342"/><use xlink:href="#3" y="6.513"/><use xlink:href="#5" y="10.855"/><use xlink:href="#6" y="13.026"/><use xlink:href="#7" y="15.197"/><use xlink:href="#8" y="17.368"/><use xlink:href="#9" y="19.539"/><use xlink:href="#10" y="21.71"/><use xlink:href="#11" y="23.881"/><use xlink:href="#12" y="26.052"/><use xlink:href="#13" y="28.223"/><use xlink:href="#14" y="30.394"/><use xlink:href="#15" y="32.565"/><use xlink:href="#16" y="34.736"/><use xlink:href="#17" y="36.907"/><use xlink:href="#18" y="39.078"/><use xlink:href="#19" y="41.249"/><use xlink:href="#20" y="43.42"/><use xlink:href="#21" y="45.591"/><use xlink:href="#22" y="47.762"/><use xlink:href="#24" y="49.933"/><use xlink:href="#25" y="52.104"/><use xlink:href="#26" y="54.275"/><text y="58.116" class="c">shabie</text><text x="6.012" y="58.116" class="f">:</text><text x="7.014" y="58.116" class="g">~/Projects/containers/section2</text><text x="37.074" y="58.116" class="h">(master)</text><text x="45.09" y="58.116" class="f">$</text><text x="47.094" y="58.116" class="f">ex</text></svg><svg x="5520"><use xlink:href="#a"/><use xlink:href="#b" x="49.996" y="56.421"/><use xlink:href="#1" y="2.171"/><use xlink:href="#2" y="4.342"/><use xlink:href="#3" y="6.513"/><use xlink:href="#5" y="10.855"/><use xlink:href="#6" y="13.026"/><use xlink:href="#7" y="15.197"/><use xlink:href="#8" y="17.368"/><use xlink:href="#9" y="19.539"/><use xlink:href="#10" y="21.71"/><use xlink:href="#11" y="23.881"/><use xlink:href="#12" y="26.052"/><use xlink:href="#13" y="28.223"/><use xlink:href="#14" y="30.394"/><use xlink:href="#15" y="32.565"/><use xlink:href="#16" y="34.736"/><use xlink:href="#17" y="36.907"/><use xlink:href="#18" y="39.078"/><use xlink:href="#19" y="41.249"/><use xlink:href="#20" y="43.42"/><use xlink:href="#21" y="45.591"/><use xlink:href="#22" y="47.762"/><use xlink:href="#24" y="49.933"/><use xlink:href="#25" y="52.104"/><use xlink:href="#26" y="54.275"/><text y="58.116" class="c">shabie</text><text x="6.012" y="58.116" class="f">:</text><text x="7.014" y="58.116" class="g">~/Projects/containers/section2</text><text x="37.074" y="58.116" class="h">(master)</text><text x="45.09" y="58.116" class="f">$</text><text x="47.094" y="58.116" class="f">exi</text></svg><svg x="5640"><use xlink:href="#a"/><use xlink:href="#b" x="50.996" y="56.421"/><use xlink:href="#1" y="2.171"/><use xlink:href="#2" y="4.342"/><use xlink:href="#3" y="6.513"/><use xlink:href="#5" y="10.855"/><use xlink:href="#6" y="13.026"/><use xlink:href="#7" y="15.197"/><use xlink:href="#8" y="17.368"/><use xlink:href="#9" y="19.539"/><use xlink:href="#10" y="21.71"/><use xlink:href="#11" y="23.881"/><use xlink:href="#12" y="26.052"/><use xlink:href="#13" y="28.223"/><use xlink:href="#14" y="30.394"/><use xlink:href="#15" y="32.565"/><use xlink:href="#16" y="34.736"/><use xlink:href="#17" y="36.907"/><use xlink:href="#18" y="39.078"/><use xlink:href="#19" y="41.249"/><use xlink:href="#20" y="43.42"/><use xlink:href="#21" y="45.591"/><use xlink:href="#22" y="47.762"/><use xlink:href="#24" y="49.933"/><use xlink:href="#25" y="52.104"/><use xlink:href="#26" y="54.275"/><use xlink:href="#27" y="56.446"/></svg><svg x="5760"><use xlink:href="#a"/><use xlink:href="#b" x="-.004" y="58.592"/><use xlink:href="#1" y="2.171"/><use xlink:href="#2" y="4.342"/><use xlink:href="#3" y="6.513"/><use xlink:href="#5" y="10.855"/><use xlink:href="#6" y="13.026"/><use xlink:href="#7" y="15.197"/><use xlink:href="#8" y="17.368"/><use xlink:href="#9" y="19.539"/><use xlink:href="#10" y="21.71"/><use xlink:href="#11" y="23.881"/><use xlink:href="#12" y="26.052"/><use xlink:href="#13" y="28.223"/><use xlink:href="#14" y="30.394"/><use xlink:href="#15" y="32.565"/><use xlink:href="#16" y="34.736"/><use xlink:href="#17" y="36.907"/><use xlink:href="#18" y="39.078"/><use xlink:href="#19" y="41.249"/><use xlink:href="#20" y="43.42"/><use xlink:href="#21" y="45.591"/><use xlink:href="#22" y="47.762"/><use xlink:href="#24" y="49.933"/><use xlink:href="#25" y="52.104"/><use xlink:href="#26" y="54.275"/><use xlink:href="#27" y="56.446"/></svg><svg x="5880"><use xlink:href="#a"/><use xlink:href="#b" x="-.004" y="60.763"/><use xlink:href="#1" y="2.171"/><use xlink:href="#2" y="4.342"/><use xlink:href="#3" y="6.513"/><use xlink:href="#5" y="10.855"/><use xlink:href="#6" y="13.026"/><use xlink:href="#7" y="15.197"/><use xlink:href="#8" y="17.368"/><use xlink:href="#9" y="19.539"/><use xlink:href="#10" y="21.71"/><use xlink:href="#11" y="23.881"/><use xlink:href="#12" y="26.052"/><use xlink:href="#13" y="28.223"/><use xlink:href="#14" y="30.394"/><use xlink:href="#15" y="32.565"/><use xlink:href="#16" y="34.736"/><use xlink:href="#17" y="36.907"/><use xlink:href="#18" y="39.078"/><use xlink:href="#19" y="41.249"/><use xlink:href="#20" y="43.42"/><use xlink:href="#21" y="45.591"/><use xlink:href="#22" y="47.762"/><use xlink:href="#24" y="49.933"/><use xlink:href="#25" y="52.104"/><use xlink:href="#26" y="54.275"/><use xlink:href="#27" y="56.446"/><text y="60.287" class="f">logout</text></svg></svg></g></g></svg></svg>