<svg xmlns="http://www.w3.org/2000/svg" xmlns:xlink="http://www.w3.org/1999/xlink" width="2360" height="472.49"><rect width="2360" height="472.49" rx="5" ry="5" class="a"/><svg y="0%" x="0%"><circle cx="20" cy="20" r="6" fill="#ff5f58"/><circle cx="40" cy="20" r="6" fill="#ffbd2e"/><circle cx="60" cy="20" r="6" fill="#18c132"/></svg><svg height="412.49" viewBox="0 0 232 41.249" width="2320" x="15" xmlns="http://www.w3.org/2000/svg" xmlns:xlink="http://www.w3.org/1999/xlink" y="50"><style>@keyframes n{0%{transform:translateX(0)}.2%{transform:translateX(-232px)}.28%{transform:translateX(-464px)}.31%{transform:translateX(-928px)}.34%{transform:translateX(-1160px)}5.32%{transform:translateX(-1392px)}10.29%{transform:translateX(-1624px)}15.18%{transform:translateX(-1856px)}17.11%{transform:translateX(-2088px)}17.56%{transform:translateX(-2320px)}22.54%{transform:translateX(-2552px)}23.04%{transform:translateX(-2784px)}28.01%{transform:translateX(-3016px)}32.77%{transform:translateX(-3248px)}37.74%{transform:translateX(-3480px)}42.72%{transform:translateX(-3712px)}47.7%{transform:translateX(-3944px)}52.67%{transform:translateX(-4176px)}57.65%{transform:translateX(-4408px)}59.47%{transform:translateX(-4872px)}59.52%{transform:translateX(-5104px)}64.5%{transform:translateX(-5336px)}65.13%{transform:translateX(-5568px)}65.78%{transform:translateX(-5800px)}66.22%{transform:translateX(-6032px)}67.11%{transform:translateX(-6264px)}67.47%{transform:translateX(-6496px)}71.01%{transform:translateX(-6728px)}72.21%{transform:translateX(-6960px)}72.75%{transform:translateX(-7192px)}73.42%{transform:translateX(-7424px)}73.67%{transform:translateX(-7656px)}75.08%{transform:translateX(-7888px)}75.33%{transform:translateX(-8120px)}76.23%{transform:translateX(-8352px)}76.66%{transform:translateX(-8584px)}77.81%{transform:translateX(-8816px)}78.4%{transform:translateX(-9048px)}80.09%{transform:translateX(-9280px)}85.07%{transform:translateX(-9744px)}85.12%{transform:translateX(-9976px)}90.09%{transform:translateX(-10208px)}91.44%{transform:translateX(-10440px)}94.05%{transform:translateX(-10672px)}95.01%{transform:translateX(-10904px)}99.99%{transform:translateX(-11368px)}}.a{fill:#282d35}.f{fill:#a8cc8c;font-weight:700;white-space:pre}.h,.i,.j,.k{fill:#66c2cd;white-space:pre}.i,.j,.k{fill:#b9c0cb}.j,.k{fill:#71bef2;font-weight:700}.k{fill:#e88388}</style><g font-family="Monaco,Consolas,Menlo,'Bitstream Vera Sans Mono','Powerline Symbols',monospace" font-size="1.67"><defs><symbol id="14"><text y="1.67" class="i">Installing</text><text x="11.022" y="1.67" class="i">Docker...</text></symbol><symbol id="1"><text x="1.002" y="1.67" class="f">*</text><text x="3.006" y="1.67" style="white-space:pre" fill="#d290e4" font-weight="700">keychain</text><text x="12.024" y="1.67" class="h">2.8.2</text><text x="18.036" y="1.67" class="i">~</text><text x="20.04" y="1.67" class="f">http://www.funtoo.org</text></symbol><symbol id="3"><text x="1.002" y="1.67" class="f">*</text><text x="3.006" y="1.67" class="i">Known</text><text x="9.018" y="1.67" class="i">ssh</text><text x="13.026" y="1.67" class="i">key:</text><text x="18.036" y="1.67" class="h">/home/shabie/.ssh/id_rsa</text></symbol><symbol id="4"><text y="1.67" class="f">shabie</text><text x="6.012" y="1.67" class="i">:</text><text x="7.014" y="1.67" class="j">~/Projects/containers/section2</text><text x="37.074" y="1.67" class="k">(master)</text><text x="45.09" y="1.67" class="i">$</text></symbol><symbol id="5"><text y="1.67" class="f">shabie</text><text x="6.012" y="1.67" class="i">:</text><text x="7.014" y="1.67" class="j">~/Projects/containers/section2</text><text x="37.074" y="1.67" class="k">(master)</text><text x="45.09" y="1.67" class="i">$</text><text x="47.094" y="1.67" class="i">docker-machine</text><text x="62.124" y="1.67" class="i">create</text><text x="69.138" y="1.67" class="i">--driver</text><text x="78.156" y="1.67" class="i">amazonec2</text><text x="88.176" y="1.67" class="i">--amazonec2-region</text><text x="107.214" y="1.67" class="i">eu-west-1</text><text x="117.234" y="1.67" class="i">--amazonec2-open-port</text><text x="139.278" y="1.67" class="i">5000</text><text x="144.288" y="1.67" class="i">aws-machine</text></symbol><symbol id="6"><text y="1.67" class="i">Running</text><text x="8.016" y="1.67" class="i">pre-create</text><text x="19.038" y="1.67" class="i">checks...</text></symbol><symbol id="7"><text y="1.67" class="i">Creating</text><text x="9.018" y="1.67" class="i">machine...</text></symbol><symbol id="8"><text y="1.67" class="i">(aws-machine)</text><text x="14.028" y="1.67" class="i">Launching</text><text x="24.048" y="1.67" class="i">instance...</text></symbol><symbol id="9"><text y="1.67" class="i">Waiting</text><text x="8.016" y="1.67" class="i">for</text><text x="12.024" y="1.67" class="i">machine</text><text x="20.04" y="1.67" class="i">to</text><text x="23.046" y="1.67" class="i">be</text><text x="26.052" y="1.67" class="i">running,</text><text x="35.07" y="1.67" class="i">this</text><text x="40.08" y="1.67" class="i">may</text><text x="44.088" y="1.67" class="i">take</text><text x="49.098" y="1.67" class="i">a</text><text x="51.102" y="1.67" class="i">few</text><text x="55.11" y="1.67" class="i">minutes...</text></symbol><symbol id="10"><text y="1.67" class="i">Detecting</text><text x="10.02" y="1.67" class="i">operating</text><text x="20.04" y="1.67" class="i">system</text><text x="27.054" y="1.67" class="i">of</text><text x="30.06" y="1.67" class="i">created</text><text x="38.076" y="1.67" class="i">instance...</text></symbol><symbol id="11"><text y="1.67" class="i">Waiting</text><text x="8.016" y="1.67" class="i">for</text><text x="12.024" y="1.67" class="i">SSH</text><text x="16.032" y="1.67" class="i">to</text><text x="19.038" y="1.67" class="i">be</text><text x="22.044" y="1.67" class="i">available...</text></symbol><symbol id="12"><text y="1.67" class="i">Detecting</text><text x="10.02" y="1.67" class="i">the</text><text x="14.028" y="1.67" class="i">provisioner...</text></symbol><symbol id="13"><text y="1.67" class="i">Provisioning</text><text x="13.026" y="1.67" class="i">with</text><text x="18.036" y="1.67" class="i">ubuntu(systemd)...</text></symbol><symbol id="2"><text x="1.002" y="1.67" class="f">*</text><text x="3.006" y="1.67" class="i">Found</text><text x="9.018" y="1.67" class="i">existing</text><text x="18.036" y="1.67" class="i">ssh-agent:</text><text x="29.058" y="1.67" class="h">14875</text></symbol><symbol id="15"><text y="1.67" class="i">Copying</text><text x="8.016" y="1.67" class="i">certs</text><text x="14.028" y="1.67" class="i">to</text><text x="17.034" y="1.67" class="i">the</text><text x="21.042" y="1.67" class="i">local</text><text x="27.054" y="1.67" class="i">machine</text><text x="35.07" y="1.67" class="i">directory...</text></symbol><symbol id="16"><text y="1.67" class="i">Copying</text><text x="8.016" y="1.67" class="i">certs</text><text x="14.028" y="1.67" class="i">to</text><text x="17.034" y="1.67" class="i">the</text><text x="21.042" y="1.67" class="i">remote</text><text x="28.056" y="1.67" class="i">machine...</text></symbol><symbol id="17"><text y="1.67" class="i">Setting</text><text x="8.016" y="1.67" class="i">Docker</text><text x="15.03" y="1.67" class="i">configuration</text><text x="29.058" y="1.67" class="i">on</text><text x="32.064" y="1.67" class="i">the</text><text x="36.072" y="1.67" class="i">remote</text><text x="43.086" y="1.67" class="i">daemon...</text></symbol><symbol id="18"><text y="1.67" class="i">Checking</text><text x="9.018" y="1.67" class="i">connection</text><text x="20.04" y="1.67" class="i">to</text><text x="23.046" y="1.67" class="i">Docker...</text></symbol><symbol id="19"><text y="1.67" class="i">Docker</text><text x="7.014" y="1.67" class="i">is</text><text x="10.02" y="1.67" class="i">up</text><text x="13.026" y="1.67" class="i">and</text><text x="17.034" y="1.67" class="i">running!</text></symbol><symbol id="20"><text y="1.67" class="i">To</text><text x="3.006" y="1.67" class="i">see</text><text x="7.014" y="1.67" class="i">how</text><text x="11.022" y="1.67" class="i">to</text><text x="14.028" y="1.67" class="i">connect</text><text x="22.044" y="1.67" class="i">your</text><text x="27.054" y="1.67" class="i">Docker</text><text x="34.068" y="1.67" class="i">Client</text><text x="41.082" y="1.67" class="i">to</text><text x="44.088" y="1.67" class="i">the</text><text x="48.096" y="1.67" class="i">Docker</text><text x="55.11" y="1.67" class="i">Engine</text><text x="62.124" y="1.67" class="i">running</text><text x="70.14" y="1.67" class="i">on</text><text x="73.146" y="1.67" class="i">this</text><text x="78.156" y="1.67" class="i">virtual</text><text x="86.172" y="1.67" class="i">machine,</text><text x="95.19" y="1.67" class="i">run:</text><text x="100.2" y="1.67" class="i">docker-machine</text><text x="115.23" y="1.67" class="i">env</text><text x="119.238" y="1.67" class="i">aws-machine</text></symbol><symbol id="21"><text y="1.67" class="f">shabie</text><text x="6.012" y="1.67" class="i">:</text><text x="7.014" y="1.67" class="j">~/Projects/containers/section2</text><text x="37.074" y="1.67" class="k">(master)</text><text x="45.09" y="1.67" class="i">$</text><text x="47.094" y="1.67" class="i">docker-machine</text></symbol><symbol id="22"><text y="1.67" class="f">shabie</text><text x="6.012" y="1.67" class="i">:</text><text x="7.014" y="1.67" class="j">~/Projects/containers/section2</text><text x="37.074" y="1.67" class="k">(master)</text><text x="45.09" y="1.67" class="i">$</text><text x="47.094" y="1.67" class="i">docker-machine</text><text x="62.124" y="1.67" class="i">ls</text></symbol><symbol id="23"><text y="1.67" class="i">NAME</text><text x="14.028" y="1.67" class="i">ACTIVE</text><text x="23.046" y="1.67" class="i">DRIVER</text><text x="35.07" y="1.67" class="i">STATE</text><text x="45.09" y="1.67" class="i">URL</text><text x="71.142" y="1.67" class="i">SWARM</text><text x="79.158" y="1.67" class="i">DOCKER</text><text x="91.182" y="1.67" class="i">ERRORS</text></symbol><symbol id="24"><text y="1.67" class="i">aws-machine</text><text x="14.028" y="1.67" class="i">-</text><text x="23.046" y="1.67" class="i">amazonec2</text><text x="35.07" y="1.67" class="i">Running</text><text x="45.09" y="1.67" class="i">tcp://34.243.93.95:2376</text><text x="79.158" y="1.67" class="i">v19.03.11</text></symbol><symbol id="25"><text y="1.67" class="f">shabie</text><text x="6.012" y="1.67" class="i">:</text><text x="7.014" y="1.67" class="j">~/Projects/containers/section2</text><text x="37.074" y="1.67" class="k">(master)</text><text x="45.09" y="1.67" class="i">$</text><text x="47.094" y="1.67" class="i">exit</text></symbol><symbol id="a"><path fill="transparent" d="M0 0h232v19H0z"/></symbol><symbol id="b"><path fill="#6f7683" d="M0 0h1.102v2.171H0z"/></symbol></defs><path class="a" d="M0 0h232v41.249H0z"/><g style="animation-duration:20.094411000000026s;animation-iteration-count:infinite;animation-name:n;animation-timing-function:steps(1,end)"><svg width="11600"><svg><use xlink:href="#a"/><use xlink:href="#b" x="-.004"/></svg><svg x="232"><use xlink:href="#a"/><use xlink:href="#b" x="-.004" y="4.317"/><use xlink:href="#1" y="2.171"/></svg><svg x="464"><use xlink:href="#a"/><use xlink:href="#b" x="-.004" y="6.488"/><use xlink:href="#1" y="2.171"/><use xlink:href="#2" y="4.342"/></svg><svg x="696"><use xlink:href="#a"/><use xlink:href="#b" x="-.004" y="8.659"/><use xlink:href="#1" y="2.171"/><use xlink:href="#2" y="4.342"/><use xlink:href="#3" y="6.513"/></svg><svg x="928"><use xlink:href="#a"/><use xlink:href="#b" x="-.004" y="10.83"/><use xlink:href="#1" y="2.171"/><use xlink:href="#2" y="4.342"/><use xlink:href="#3" y="6.513"/></svg><svg x="1160"><use xlink:href="#a"/><use xlink:href="#b" x="46.996" y="10.83"/><use xlink:href="#1" y="2.171"/><use xlink:href="#2" y="4.342"/><use xlink:href="#3" y="6.513"/><use xlink:href="#4" y="10.855"/></svg><svg x="1392"><use xlink:href="#a"/><use xlink:href="#b" x="154.996" y="10.83"/><use xlink:href="#1" y="2.171"/><use xlink:href="#2" y="4.342"/><use xlink:href="#3" y="6.513"/><use xlink:href="#5" y="10.855"/></svg><svg x="1624"><use xlink:href="#a"/><use xlink:href="#b" x="-.004" y="13.001"/><use xlink:href="#1" y="2.171"/><use xlink:href="#2" y="4.342"/><use xlink:href="#3" y="6.513"/><use xlink:href="#5" y="10.855"/></svg><svg x="1856"><use xlink:href="#a"/><use xlink:href="#b" x="-.004" y="15.172"/><use xlink:href="#1" y="2.171"/><use xlink:href="#2" y="4.342"/><use xlink:href="#3" y="6.513"/><use xlink:href="#5" y="10.855"/><use xlink:href="#6" y="13.026"/></svg><svg x="2088"><use xlink:href="#a"/><use xlink:href="#b" x="-.004" y="17.343"/><use xlink:href="#1" y="2.171"/><use xlink:href="#2" y="4.342"/><use xlink:href="#3" y="6.513"/><use xlink:href="#5" y="10.855"/><use xlink:href="#6" y="13.026"/><use xlink:href="#7" y="15.197"/></svg><svg x="2320"><use xlink:href="#a"/><use xlink:href="#b" x="-.004" y="19.514"/><use xlink:href="#1" y="2.171"/><use xlink:href="#2" y="4.342"/><use xlink:href="#3" y="6.513"/><use xlink:href="#5" y="10.855"/><use xlink:href="#6" y="13.026"/><use xlink:href="#7" y="15.197"/><use xlink:href="#8" y="17.368"/></svg><svg x="2552"><use xlink:href="#a"/><use xlink:href="#b" x="-.004" y="21.685"/><use xlink:href="#1" y="2.171"/><use xlink:href="#2" y="4.342"/><use xlink:href="#3" y="6.513"/><use xlink:href="#5" y="10.855"/><use xlink:href="#6" y="13.026"/><use xlink:href="#7" y="15.197"/><use xlink:href="#8" y="17.368"/><use xlink:href="#9" y="19.539"/></svg><svg x="2784"><use xlink:href="#a"/><use xlink:href="#b" x="-.004" y="26.027"/><use xlink:href="#1" y="2.171"/><use xlink:href="#2" y="4.342"/><use xlink:href="#3" y="6.513"/><use xlink:href="#5" y="10.855"/><use xlink:href="#6" y="13.026"/><use xlink:href="#7" y="15.197"/><use xlink:href="#8" y="17.368"/><use xlink:href="#9" y="19.539"/><use xlink:href="#10" y="21.71"/><use xlink:href="#11" y="23.881"/></svg><svg x="3016"><use xlink:href="#a"/><use xlink:href="#b" x="-.004" y="28.198"/><use xlink:href="#1" y="2.171"/><use xlink:href="#2" y="4.342"/><use xlink:href="#3" y="6.513"/><use xlink:href="#5" y="10.855"/><use xlink:href="#6" y="13.026"/><use xlink:href="#7" y="15.197"/><use xlink:href="#8" y="17.368"/><use xlink:href="#9" y="19.539"/><use xlink:href="#10" y="21.71"/><use xlink:href="#11" y="23.881"/><use xlink:href="#12" y="26.052"/></svg><svg x="3248"><use xlink:href="#a"/><use xlink:href="#b" x="-.004" y="30.369"/><use xlink:href="#1" y="2.171"/><use xlink:href="#2" y="4.342"/><use xlink:href="#3" y="6.513"/><use xlink:href="#5" y="10.855"/><use xlink:href="#6" y="13.026"/><use xlink:href="#7" y="15.197"/><use xlink:href="#8" y="17.368"/><use xlink:href="#9" y="19.539"/><use xlink:href="#10" y="21.71"/><use xlink:href="#11" y="23.881"/><use xlink:href="#12" y="26.052"/><use xlink:href="#13" y="28.223"/></svg><svg x="3480"><use xlink:href="#a"/><use xlink:href="#b" x="-.004" y="32.54"/><use xlink:href="#1" y="2.171"/><use xlink:href="#2" y="4.342"/><use xlink:href="#3" y="6.513"/><use xlink:href="#5" y="10.855"/><use xlink:href="#6" y="13.026"/><use xlink:href="#7" y="15.197"/><use xlink:href="#8" y="17.368"/><use xlink:href="#9" y="19.539"/><use xlink:href="#10" y="21.71"/><use xlink:href="#11" y="23.881"/><use xlink:href="#12" y="26.052"/><use xlink:href="#13" y="28.223"/><use xlink:href="#14" y="30.394"/></svg><svg x="3712"><use xlink:href="#a"/><use xlink:href="#b" x="-.004" y="34.711"/><use xlink:href="#1" y="2.171"/><use xlink:href="#2" y="4.342"/><use xlink:href="#3" y="6.513"/><use xlink:href="#5" y="10.855"/><use xlink:href="#6" y="13.026"/><use xlink:href="#7" y="15.197"/><use xlink:href="#8" y="17.368"/><use xlink:href="#9" y="19.539"/><use xlink:href="#10" y="21.71"/><use xlink:href="#11" y="23.881"/><use xlink:href="#12" y="26.052"/><use xlink:href="#13" y="28.223"/><use xlink:href="#14" y="30.394"/><use xlink:href="#15" y="32.565"/></svg><svg x="3944"><use xlink:href="#a"/><use xlink:href="#b" x="-.004" y="36.882"/><use xlink:href="#1" y="2.171"/><use xlink:href="#2" y="4.342"/><use xlink:href="#3" y="6.513"/><use xlink:href="#5" y="10.855"/><use xlink:href="#6" y="13.026"/><use xlink:href="#7" y="15.197"/><use xlink:href="#8" y="17.368"/><use xlink:href="#9" y="19.539"/><use xlink:href="#10" y="21.71"/><use xlink:href="#11" y="23.881"/><use xlink:href="#12" y="26.052"/><use xlink:href="#13" y="28.223"/><use xlink:href="#14" y="30.394"/><use xlink:href="#15" y="32.565"/><use xlink:href="#16" y="34.736"/></svg><svg x="4176"><use xlink:href="#a"/><use xlink:href="#b" x="-.004" y="39.053"/><use xlink:href="#1" y="2.171"/><use xlink:href="#2" y="4.342"/><use xlink:href="#3" y="6.513"/><use xlink:href="#5" y="10.855"/><use xlink:href="#6" y="13.026"/><use xlink:href="#7" y="15.197"/><use xlink:href="#8" y="17.368"/><use xlink:href="#9" y="19.539"/><use xlink:href="#10" y="21.71"/><use xlink:href="#11" y="23.881"/><use xlink:href="#12" y="26.052"/><use xlink:href="#13" y="28.223"/><use xlink:href="#14" y="30.394"/><use xlink:href="#15" y="32.565"/><use xlink:href="#16" y="34.736"/><use xlink:href="#17" y="36.907"/></svg><svg x="4408"><use xlink:href="#a"/><use xlink:href="#b" x="-.004" y="39.053"/><use xlink:href="#1"/><use xlink:href="#2" y="2.171"/><use xlink:href="#3" y="4.342"/><use xlink:href="#5" y="8.684"/><use xlink:href="#6" y="10.855"/><use xlink:href="#7" y="13.026"/><use xlink:href="#8" y="15.197"/><use xlink:href="#9" y="17.368"/><use xlink:href="#10" y="19.539"/><use xlink:href="#11" y="21.71"/><use xlink:href="#12" y="23.881"/><use xlink:href="#13" y="26.052"/><use xlink:href="#14" y="28.223"/><use xlink:href="#15" y="30.394"/><use xlink:href="#16" y="32.565"/><use xlink:href="#17" y="34.736"/><use xlink:href="#18" y="36.907"/></svg><svg x="4640"><use xlink:href="#a"/><use xlink:href="#b" x="-.004" y="39.053"/><use xlink:href="#2"/><use xlink:href="#3" y="2.171"/><use xlink:href="#5" y="6.513"/><use xlink:href="#6" y="8.684"/><use xlink:href="#7" y="10.855"/><use xlink:href="#8" y="13.026"/><use xlink:href="#9" y="15.197"/><use xlink:href="#10" y="17.368"/><use xlink:href="#11" y="19.539"/><use xlink:href="#12" y="21.71"/><use xlink:href="#13" y="23.881"/><use xlink:href="#14" y="26.052"/><use xlink:href="#15" y="28.223"/><use xlink:href="#16" y="30.394"/><use xlink:href="#17" y="32.565"/><use xlink:href="#18" y="34.736"/><use xlink:href="#19" y="36.907"/></svg><svg x="4872"><use xlink:href="#a"/><use xlink:href="#b" x="-.004" y="39.053"/><use xlink:href="#3"/><use xlink:href="#5" y="4.342"/><use xlink:href="#6" y="6.513"/><use xlink:href="#7" y="8.684"/><use xlink:href="#8" y="10.855"/><use xlink:href="#9" y="13.026"/><use xlink:href="#10" y="15.197"/><use xlink:href="#11" y="17.368"/><use xlink:href="#12" y="19.539"/><use xlink:href="#13" y="21.71"/><use xlink:href="#14" y="23.881"/><use xlink:href="#15" y="26.052"/><use xlink:href="#16" y="28.223"/><use xlink:href="#17" y="30.394"/><use xlink:href="#18" y="32.565"/><use xlink:href="#19" y="34.736"/><use xlink:href="#20" y="36.907"/></svg><svg x="5104"><use xlink:href="#a"/><use xlink:href="#b" x="46.996" y="39.053"/><use xlink:href="#3"/><use xlink:href="#5" y="4.342"/><use xlink:href="#6" y="6.513"/><use xlink:href="#7" y="8.684"/><use xlink:href="#8" y="10.855"/><use xlink:href="#9" y="13.026"/><use xlink:href="#10" y="15.197"/><use xlink:href="#11" y="17.368"/><use xlink:href="#12" y="19.539"/><use xlink:href="#13" y="21.71"/><use xlink:href="#14" y="23.881"/><use xlink:href="#15" y="26.052"/><use xlink:href="#16" y="28.223"/><use xlink:href="#17" y="30.394"/><use xlink:href="#18" y="32.565"/><use xlink:href="#19" y="34.736"/><use xlink:href="#20" y="36.907"/><use xlink:href="#4" y="39.078"/></svg><svg x="5336"><use xlink:href="#a"/><use xlink:href="#b" x="47.996" y="39.053"/><use xlink:href="#3"/><use xlink:href="#5" y="4.342"/><use xlink:href="#6" y="6.513"/><use xlink:href="#7" y="8.684"/><use xlink:href="#8" y="10.855"/><use xlink:href="#9" y="13.026"/><use xlink:href="#10" y="15.197"/><use xlink:href="#11" y="17.368"/><use xlink:href="#12" y="19.539"/><use xlink:href="#13" y="21.71"/><use xlink:href="#14" y="23.881"/><use xlink:href="#15" y="26.052"/><use xlink:href="#16" y="28.223"/><use xlink:href="#17" y="30.394"/><use xlink:href="#18" y="32.565"/><use xlink:href="#19" y="34.736"/><use xlink:href="#20" y="36.907"/><text y="40.748" class="f">shabie</text><text x="6.012" y="40.748" class="i">:</text><text x="7.014" y="40.748" class="j">~/Projects/containers/section2</text><text x="37.074" y="40.748" class="k">(master)</text><text x="45.09" y="40.748" class="i">$</text><text x="47.094" y="40.748" class="i">d</text></svg><svg x="5568"><use xlink:href="#a"/><use xlink:href="#b" x="48.996" y="39.053"/><use xlink:href="#3"/><use xlink:href="#5" y="4.342"/><use xlink:href="#6" y="6.513"/><use xlink:href="#7" y="8.684"/><use xlink:href="#8" y="10.855"/><use xlink:href="#9" y="13.026"/><use xlink:href="#10" y="15.197"/><use xlink:href="#11" y="17.368"/><use xlink:href="#12" y="19.539"/><use xlink:href="#13" y="21.71"/><use xlink:href="#14" y="23.881"/><use xlink:href="#15" y="26.052"/><use xlink:href="#16" y="28.223"/><use xlink:href="#17" y="30.394"/><use xlink:href="#18" y="32.565"/><use xlink:href="#19" y="34.736"/><use xlink:href="#20" y="36.907"/><text y="40.748" class="f">shabie</text><text x="6.012" y="40.748" class="i">:</text><text x="7.014" y="40.748" class="j">~/Projects/containers/section2</text><text x="37.074" y="40.748" class="k">(master)</text><text x="45.09" y="40.748" class="i">$</text><text x="47.094" y="40.748" class="i">do</text></svg><svg x="5800"><use xlink:href="#a"/><use xlink:href="#b" x="49.996" y="39.053"/><use xlink:href="#3"/><use xlink:href="#5" y="4.342"/><use xlink:href="#6" y="6.513"/><use xlink:href="#7" y="8.684"/><use xlink:href="#8" y="10.855"/><use xlink:href="#9" y="13.026"/><use xlink:href="#10" y="15.197"/><use xlink:href="#11" y="17.368"/><use xlink:href="#12" y="19.539"/><use xlink:href="#13" y="21.71"/><use xlink:href="#14" y="23.881"/><use xlink:href="#15" y="26.052"/><use xlink:href="#16" y="28.223"/><use xlink:href="#17" y="30.394"/><use xlink:href="#18" y="32.565"/><use xlink:href="#19" y="34.736"/><use xlink:href="#20" y="36.907"/><text y="40.748" class="f">shabie</text><text x="6.012" y="40.748" class="i">:</text><text x="7.014" y="40.748" class="j">~/Projects/containers/section2</text><text x="37.074" y="40.748" class="k">(master)</text><text x="45.09" y="40.748" class="i">$</text><text x="47.094" y="40.748" class="i">doc</text></svg><svg x="6032"><use xlink:href="#a"/><use xlink:href="#b" x="50.996" y="39.053"/><use xlink:href="#3"/><use xlink:href="#5" y="4.342"/><use xlink:href="#6" y="6.513"/><use xlink:href="#7" y="8.684"/><use xlink:href="#8" y="10.855"/><use xlink:href="#9" y="13.026"/><use xlink:href="#10" y="15.197"/><use xlink:href="#11" y="17.368"/><use xlink:href="#12" y="19.539"/><use xlink:href="#13" y="21.71"/><use xlink:href="#14" y="23.881"/><use xlink:href="#15" y="26.052"/><use xlink:href="#16" y="28.223"/><use xlink:href="#17" y="30.394"/><use xlink:href="#18" y="32.565"/><use xlink:href="#19" y="34.736"/><use xlink:href="#20" y="36.907"/><text y="40.748" class="f">shabie</text><text x="6.012" y="40.748" class="i">:</text><text x="7.014" y="40.748" class="j">~/Projects/containers/section2</text><text x="37.074" y="40.748" class="k">(master)</text><text x="45.09" y="40.748" class="i">$</text><text x="47.094" y="40.748" class="i">dock</text></svg><svg x="6264"><use xlink:href="#a"/><use xlink:href="#b" x="51.996" y="39.053"/><use xlink:href="#3"/><use xlink:href="#5" y="4.342"/><use xlink:href="#6" y="6.513"/><use xlink:href="#7" y="8.684"/><use xlink:href="#8" y="10.855"/><use xlink:href="#9" y="13.026"/><use xlink:href="#10" y="15.197"/><use xlink:href="#11" y="17.368"/><use xlink:href="#12" y="19.539"/><use xlink:href="#13" y="21.71"/><use xlink:href="#14" y="23.881"/><use xlink:href="#15" y="26.052"/><use xlink:href="#16" y="28.223"/><use xlink:href="#17" y="30.394"/><use xlink:href="#18" y="32.565"/><use xlink:href="#19" y="34.736"/><use xlink:href="#20" y="36.907"/><text y="40.748" class="f">shabie</text><text x="6.012" y="40.748" class="i">:</text><text x="7.014" y="40.748" class="j">~/Projects/containers/section2</text><text x="37.074" y="40.748" class="k">(master)</text><text x="45.09" y="40.748" class="i">$</text><text x="47.094" y="40.748" class="i">docke</text></svg><svg x="6496"><use xlink:href="#a"/><use xlink:href="#b" x="52.996" y="39.053"/><use xlink:href="#3"/><use xlink:href="#5" y="4.342"/><use xlink:href="#6" y="6.513"/><use xlink:href="#7" y="8.684"/><use xlink:href="#8" y="10.855"/><use xlink:href="#9" y="13.026"/><use xlink:href="#10" y="15.197"/><use xlink:href="#11" y="17.368"/><use xlink:href="#12" y="19.539"/><use xlink:href="#13" y="21.71"/><use xlink:href="#14" y="23.881"/><use xlink:href="#15" y="26.052"/><use xlink:href="#16" y="28.223"/><use xlink:href="#17" y="30.394"/><use xlink:href="#18" y="32.565"/><use xlink:href="#19" y="34.736"/><use xlink:href="#20" y="36.907"/><text y="40.748" class="f">shabie</text><text x="6.012" y="40.748" class="i">:</text><text x="7.014" y="40.748" class="j">~/Projects/containers/section2</text><text x="37.074" y="40.748" class="k">(master)</text><text x="45.09" y="40.748" class="i">$</text><text x="47.094" y="40.748" class="i">docker</text></svg><svg x="6728"><use xlink:href="#a"/><use xlink:href="#b" x="53.996" y="39.053"/><use xlink:href="#3"/><use xlink:href="#5" y="4.342"/><use xlink:href="#6" y="6.513"/><use xlink:href="#7" y="8.684"/><use xlink:href="#8" y="10.855"/><use xlink:href="#9" y="13.026"/><use xlink:href="#10" y="15.197"/><use xlink:href="#11" y="17.368"/><use xlink:href="#12" y="19.539"/><use xlink:href="#13" y="21.71"/><use xlink:href="#14" y="23.881"/><use xlink:href="#15" y="26.052"/><use xlink:href="#16" y="28.223"/><use xlink:href="#17" y="30.394"/><use xlink:href="#18" y="32.565"/><use xlink:href="#19" y="34.736"/><use xlink:href="#20" y="36.907"/><text y="40.748" class="f">shabie</text><text x="6.012" y="40.748" class="i">:</text><text x="7.014" y="40.748" class="j">~/Projects/containers/section2</text><text x="37.074" y="40.748" class="k">(master)</text><text x="45.09" y="40.748" class="i">$</text><text x="47.094" y="40.748" class="i">docker-</text></svg><svg x="6960"><use xlink:href="#a"/><use xlink:href="#b" x="54.996" y="39.053"/><use xlink:href="#3"/><use xlink:href="#5" y="4.342"/><use xlink:href="#6" y="6.513"/><use xlink:href="#7" y="8.684"/><use xlink:href="#8" y="10.855"/><use xlink:href="#9" y="13.026"/><use xlink:href="#10" y="15.197"/><use xlink:href="#11" y="17.368"/><use xlink:href="#12" y="19.539"/><use xlink:href="#13" y="21.71"/><use xlink:href="#14" y="23.881"/><use xlink:href="#15" y="26.052"/><use xlink:href="#16" y="28.223"/><use xlink:href="#17" y="30.394"/><use xlink:href="#18" y="32.565"/><use xlink:href="#19" y="34.736"/><use xlink:href="#20" y="36.907"/><text y="40.748" class="f">shabie</text><text x="6.012" y="40.748" class="i">:</text><text x="7.014" y="40.748" class="j">~/Projects/containers/section2</text><text x="37.074" y="40.748" class="k">(master)</text><text x="45.09" y="40.748" class="i">$</text><text x="47.094" y="40.748" class="i">docker-m</text></svg><svg x="7192"><use xlink:href="#a"/><use xlink:href="#b" x="55.996" y="39.053"/><use xlink:href="#3"/><use xlink:href="#5" y="4.342"/><use xlink:href="#6" y="6.513"/><use xlink:href="#7" y="8.684"/><use xlink:href="#8" y="10.855"/><use xlink:href="#9" y="13.026"/><use xlink:href="#10" y="15.197"/><use xlink:href="#11" y="17.368"/><use xlink:href="#12" y="19.539"/><use xlink:href="#13" y="21.71"/><use xlink:href="#14" y="23.881"/><use xlink:href="#15" y="26.052"/><use xlink:href="#16" y="28.223"/><use xlink:href="#17" y="30.394"/><use xlink:href="#18" y="32.565"/><use xlink:href="#19" y="34.736"/><use xlink:href="#20" y="36.907"/><text y="40.748" class="f">shabie</text><text x="6.012" y="40.748" class="i">:</text><text x="7.014" y="40.748" class="j">~/Projects/containers/section2</text><text x="37.074" y="40.748" class="k">(master)</text><text x="45.09" y="40.748" class="i">$</text><text x="47.094" y="40.748" class="i">docker-ma</text></svg><svg x="7424"><use xlink:href="#a"/><use xlink:href="#b" x="56.996" y="39.053"/><use xlink:href="#3"/><use xlink:href="#5" y="4.342"/><use xlink:href="#6" y="6.513"/><use xlink:href="#7" y="8.684"/><use xlink:href="#8" y="10.855"/><use xlink:href="#9" y="13.026"/><use xlink:href="#10" y="15.197"/><use xlink:href="#11" y="17.368"/><use xlink:href="#12" y="19.539"/><use xlink:href="#13" y="21.71"/><use xlink:href="#14" y="23.881"/><use xlink:href="#15" y="26.052"/><use xlink:href="#16" y="28.223"/><use xlink:href="#17" y="30.394"/><use xlink:href="#18" y="32.565"/><use xlink:href="#19" y="34.736"/><use xlink:href="#20" y="36.907"/><text y="40.748" class="f">shabie</text><text x="6.012" y="40.748" class="i">:</text><text x="7.014" y="40.748" class="j">~/Projects/containers/section2</text><text x="37.074" y="40.748" class="k">(master)</text><text x="45.09" y="40.748" class="i">$</text><text x="47.094" y="40.748" class="i">docker-mac</text></svg><svg x="7656"><use xlink:href="#a"/><use xlink:href="#b" x="57.996" y="39.053"/><use xlink:href="#3"/><use xlink:href="#5" y="4.342"/><use xlink:href="#6" y="6.513"/><use xlink:href="#7" y="8.684"/><use xlink:href="#8" y="10.855"/><use xlink:href="#9" y="13.026"/><use xlink:href="#10" y="15.197"/><use xlink:href="#11" y="17.368"/><use xlink:href="#12" y="19.539"/><use xlink:href="#13" y="21.71"/><use xlink:href="#14" y="23.881"/><use xlink:href="#15" y="26.052"/><use xlink:href="#16" y="28.223"/><use xlink:href="#17" y="30.394"/><use xlink:href="#18" y="32.565"/><use xlink:href="#19" y="34.736"/><use xlink:href="#20" y="36.907"/><text y="40.748" class="f">shabie</text><text x="6.012" y="40.748" class="i">:</text><text x="7.014" y="40.748" class="j">~/Projects/containers/section2</text><text x="37.074" y="40.748" class="k">(master)</text><text x="45.09" y="40.748" class="i">$</text><text x="47.094" y="40.748" class="i">docker-mach</text></svg><svg x="7888"><use xlink:href="#a"/><use xlink:href="#b" x="58.996" y="39.053"/><use xlink:href="#3"/><use xlink:href="#5" y="4.342"/><use xlink:href="#6" y="6.513"/><use xlink:href="#7" y="8.684"/><use xlink:href="#8" y="10.855"/><use xlink:href="#9" y="13.026"/><use xlink:href="#10" y="15.197"/><use xlink:href="#11" y="17.368"/><use xlink:href="#12" y="19.539"/><use xlink:href="#13" y="21.71"/><use xlink:href="#14" y="23.881"/><use xlink:href="#15" y="26.052"/><use xlink:href="#16" y="28.223"/><use xlink:href="#17" y="30.394"/><use xlink:href="#18" y="32.565"/><use xlink:href="#19" y="34.736"/><use xlink:href="#20" y="36.907"/><text y="40.748" class="f">shabie</text><text x="6.012" y="40.748" class="i">:</text><text x="7.014" y="40.748" class="j">~/Projects/containers/section2</text><text x="37.074" y="40.748" class="k">(master)</text><text x="45.09" y="40.748" class="i">$</text><text x="47.094" y="40.748" class="i">docker-machi</text></svg><svg x="8120"><use xlink:href="#a"/><use xlink:href="#b" x="59.996" y="39.053"/><use xlink:href="#3"/><use xlink:href="#5" y="4.342"/><use xlink:href="#6" y="6.513"/><use xlink:href="#7" y="8.684"/><use xlink:href="#8" y="10.855"/><use xlink:href="#9" y="13.026"/><use xlink:href="#10" y="15.197"/><use xlink:href="#11" y="17.368"/><use xlink:href="#12" y="19.539"/><use xlink:href="#13" y="21.71"/><use xlink:href="#14" y="23.881"/><use xlink:href="#15" y="26.052"/><use xlink:href="#16" y="28.223"/><use xlink:href="#17" y="30.394"/><use xlink:href="#18" y="32.565"/><use xlink:href="#19" y="34.736"/><use xlink:href="#20" y="36.907"/><text y="40.748" class="f">shabie</text><text x="6.012" y="40.748" class="i">:</text><text x="7.014" y="40.748" class="j">~/Projects/containers/section2</text><text x="37.074" y="40.748" class="k">(master)</text><text x="45.09" y="40.748" class="i">$</text><text x="47.094" y="40.748" class="i">docker-machin</text></svg><svg x="8352"><use xlink:href="#a"/><use xlink:href="#b" x="60.996" y="39.053"/><use xlink:href="#3"/><use xlink:href="#5" y="4.342"/><use xlink:href="#6" y="6.513"/><use xlink:href="#7" y="8.684"/><use xlink:href="#8" y="10.855"/><use xlink:href="#9" y="13.026"/><use xlink:href="#10" y="15.197"/><use xlink:href="#11" y="17.368"/><use xlink:href="#12" y="19.539"/><use xlink:href="#13" y="21.71"/><use xlink:href="#14" y="23.881"/><use xlink:href="#15" y="26.052"/><use xlink:href="#16" y="28.223"/><use xlink:href="#17" y="30.394"/><use xlink:href="#18" y="32.565"/><use xlink:href="#19" y="34.736"/><use xlink:href="#20" y="36.907"/><use xlink:href="#21" y="39.078"/></svg><svg x="8584"><use xlink:href="#a"/><use xlink:href="#b" x="61.996" y="39.053"/><use xlink:href="#3"/><use xlink:href="#5" y="4.342"/><use xlink:href="#6" y="6.513"/><use xlink:href="#7" y="8.684"/><use xlink:href="#8" y="10.855"/><use xlink:href="#9" y="13.026"/><use xlink:href="#10" y="15.197"/><use xlink:href="#11" y="17.368"/><use xlink:href="#12" y="19.539"/><use xlink:href="#13" y="21.71"/><use xlink:href="#14" y="23.881"/><use xlink:href="#15" y="26.052"/><use xlink:href="#16" y="28.223"/><use xlink:href="#17" y="30.394"/><use xlink:href="#18" y="32.565"/><use xlink:href="#19" y="34.736"/><use xlink:href="#20" y="36.907"/><use xlink:href="#21" y="39.078"/></svg><svg x="8816"><use xlink:href="#a"/><use xlink:href="#b" x="62.996" y="39.053"/><use xlink:href="#3"/><use xlink:href="#5" y="4.342"/><use xlink:href="#6" y="6.513"/><use xlink:href="#7" y="8.684"/><use xlink:href="#8" y="10.855"/><use xlink:href="#9" y="13.026"/><use xlink:href="#10" y="15.197"/><use xlink:href="#11" y="17.368"/><use xlink:href="#12" y="19.539"/><use xlink:href="#13" y="21.71"/><use xlink:href="#14" y="23.881"/><use xlink:href="#15" y="26.052"/><use xlink:href="#16" y="28.223"/><use xlink:href="#17" y="30.394"/><use xlink:href="#18" y="32.565"/><use xlink:href="#19" y="34.736"/><use xlink:href="#20" y="36.907"/><text y="40.748" class="f">shabie</text><text x="6.012" y="40.748" class="i">:</text><text x="7.014" y="40.748" class="j">~/Projects/containers/section2</text><text x="37.074" y="40.748" class="k">(master)</text><text x="45.09" y="40.748" class="i">$</text><text x="47.094" y="40.748" class="i">docker-machine</text><text x="62.124" y="40.748" class="i">l</text></svg><svg x="9048"><use xlink:href="#a"/><use xlink:href="#b" x="63.996" y="39.053"/><use xlink:href="#3"/><use xlink:href="#5" y="4.342"/><use xlink:href="#6" y="6.513"/><use xlink:href="#7" y="8.684"/><use xlink:href="#8" y="10.855"/><use xlink:href="#9" y="13.026"/><use xlink:href="#10" y="15.197"/><use xlink:href="#11" y="17.368"/><use xlink:href="#12" y="19.539"/><use xlink:href="#13" y="21.71"/><use xlink:href="#14" y="23.881"/><use xlink:href="#15" y="26.052"/><use xlink:href="#16" y="28.223"/><use xlink:href="#17" y="30.394"/><use xlink:href="#18" y="32.565"/><use xlink:href="#19" y="34.736"/><use xlink:href="#20" y="36.907"/><use xlink:href="#22" y="39.078"/></svg><svg x="9280"><use xlink:href="#a"/><use xlink:href="#b" x="-.004" y="39.053"/><use xlink:href="#5" y="2.171"/><use xlink:href="#6" y="4.342"/><use xlink:href="#7" y="6.513"/><use xlink:href="#8" y="8.684"/><use xlink:href="#9" y="10.855"/><use xlink:href="#10" y="13.026"/><use xlink:href="#11" y="15.197"/><use xlink:href="#12" y="17.368"/><use xlink:href="#13" y="19.539"/><use xlink:href="#14" y="21.71"/><use xlink:href="#15" y="23.881"/><use xlink:href="#16" y="26.052"/><use xlink:href="#17" y="28.223"/><use xlink:href="#18" y="30.394"/><use xlink:href="#19" y="32.565"/><use xlink:href="#20" y="34.736"/><use xlink:href="#22" y="36.907"/></svg><svg x="9512"><use xlink:href="#a"/><use xlink:href="#b" x="34.996" y="39.053"/><use xlink:href="#5"/><use xlink:href="#6" y="2.171"/><use xlink:href="#7" y="4.342"/><use xlink:href="#8" y="6.513"/><use xlink:href="#9" y="8.684"/><use xlink:href="#10" y="10.855"/><use xlink:href="#11" y="13.026"/><use xlink:href="#12" y="15.197"/><use xlink:href="#13" y="17.368"/><use xlink:href="#14" y="19.539"/><use xlink:href="#15" y="21.71"/><use xlink:href="#16" y="23.881"/><use xlink:href="#17" y="26.052"/><use xlink:href="#18" y="28.223"/><use xlink:href="#19" y="30.394"/><use xlink:href="#20" y="32.565"/><use xlink:href="#22" y="34.736"/><use xlink:href="#23" y="36.907"/><text y="40.748" class="i">aws-machine</text><text x="14.028" y="40.748" class="i">-</text><text x="23.046" y="40.748" class="i">amazonec2</text></svg><svg x="9744"><use xlink:href="#a"/><use xlink:href="#b" x="-.004" y="39.053"/><use xlink:href="#6"/><use xlink:href="#7" y="2.171"/><use xlink:href="#8" y="4.342"/><use xlink:href="#9" y="6.513"/><use xlink:href="#10" y="8.684"/><use xlink:href="#11" y="10.855"/><use xlink:href="#12" y="13.026"/><use xlink:href="#13" y="15.197"/><use xlink:href="#14" y="17.368"/><use xlink:href="#15" y="19.539"/><use xlink:href="#16" y="21.71"/><use xlink:href="#17" y="23.881"/><use xlink:href="#18" y="26.052"/><use xlink:href="#19" y="28.223"/><use xlink:href="#20" y="30.394"/><use xlink:href="#22" y="32.565"/><use xlink:href="#23" y="34.736"/><use xlink:href="#24" y="36.907"/></svg><svg x="9976"><use xlink:href="#a"/><use xlink:href="#b" x="46.996" y="39.053"/><use xlink:href="#6"/><use xlink:href="#7" y="2.171"/><use xlink:href="#8" y="4.342"/><use xlink:href="#9" y="6.513"/><use xlink:href="#10" y="8.684"/><use xlink:href="#11" y="10.855"/><use xlink:href="#12" y="13.026"/><use xlink:href="#13" y="15.197"/><use xlink:href="#14" y="17.368"/><use xlink:href="#15" y="19.539"/><use xlink:href="#16" y="21.71"/><use xlink:href="#17" y="23.881"/><use xlink:href="#18" y="26.052"/><use xlink:href="#19" y="28.223"/><use xlink:href="#20" y="30.394"/><use xlink:href="#22" y="32.565"/><use xlink:href="#23" y="34.736"/><use xlink:href="#24" y="36.907"/><use xlink:href="#4" y="39.078"/></svg><svg x="10208"><use xlink:href="#a"/><use xlink:href="#b" x="47.996" y="39.053"/><use xlink:href="#6"/><use xlink:href="#7" y="2.171"/><use xlink:href="#8" y="4.342"/><use xlink:href="#9" y="6.513"/><use xlink:href="#10" y="8.684"/><use xlink:href="#11" y="10.855"/><use xlink:href="#12" y="13.026"/><use xlink:href="#13" y="15.197"/><use xlink:href="#14" y="17.368"/><use xlink:href="#15" y="19.539"/><use xlink:href="#16" y="21.71"/><use xlink:href="#17" y="23.881"/><use xlink:href="#18" y="26.052"/><use xlink:href="#19" y="28.223"/><use xlink:href="#20" y="30.394"/><use xlink:href="#22" y="32.565"/><use xlink:href="#23" y="34.736"/><use xlink:href="#24" y="36.907"/><text y="40.748" class="f">shabie</text><text x="6.012" y="40.748" class="i">:</text><text x="7.014" y="40.748" class="j">~/Projects/containers/section2</text><text x="37.074" y="40.748" class="k">(master)</text><text x="45.09" y="40.748" class="i">$</text><text x="47.094" y="40.748" class="i">e</text></svg><svg x="10440"><use xlink:href="#a"/><use xlink:href="#b" x="48.996" y="39.053"/><use xlink:href="#6"/><use xlink:href="#7" y="2.171"/><use xlink:href="#8" y="4.342"/><use xlink:href="#9" y="6.513"/><use xlink:href="#10" y="8.684"/><use xlink:href="#11" y="10.855"/><use xlink:href="#12" y="13.026"/><use xlink:href="#13" y="15.197"/><use xlink:href="#14" y="17.368"/><use xlink:href="#15" y="19.539"/><use xlink:href="#16" y="21.71"/><use xlink:href="#17" y="23.881"/><use xlink:href="#18" y="26.052"/><use xlink:href="#19" y="28.223"/><use xlink:href="#20" y="30.394"/><use xlink:href="#22" y="32.565"/><use xlink:href="#23" y="34.736"/><use xlink:href="#24" y="36.907"/><text y="40.748" class="f">shabie</text><text x="6.012" y="40.748" class="i">:</text><text x="7.014" y="40.748" class="j">~/Projects/containers/section2</text><text x="37.074" y="40.748" class="k">(master)</text><text x="45.09" y="40.748" class="i">$</text><text x="47.094" y="40.748" class="i">ex</text></svg><svg x="10672"><use xlink:href="#a"/><use xlink:href="#b" x="49.996" y="39.053"/><use xlink:href="#6"/><use xlink:href="#7" y="2.171"/><use xlink:href="#8" y="4.342"/><use xlink:href="#9" y="6.513"/><use xlink:href="#10" y="8.684"/><use xlink:href="#11" y="10.855"/><use xlink:href="#12" y="13.026"/><use xlink:href="#13" y="15.197"/><use xlink:href="#14" y="17.368"/><use xlink:href="#15" y="19.539"/><use xlink:href="#16" y="21.71"/><use xlink:href="#17" y="23.881"/><use xlink:href="#18" y="26.052"/><use xlink:href="#19" y="28.223"/><use xlink:href="#20" y="30.394"/><use xlink:href="#22" y="32.565"/><use xlink:href="#23" y="34.736"/><use xlink:href="#24" y="36.907"/><text y="40.748" class="f">shabie</text><text x="6.012" y="40.748" class="i">:</text><text x="7.014" y="40.748" class="j">~/Projects/containers/section2</text><text x="37.074" y="40.748" class="k">(master)</text><text x="45.09" y="40.748" class="i">$</text><text x="47.094" y="40.748" class="i">exi</text></svg><svg x="10904"><use xlink:href="#a"/><use xlink:href="#b" x="50.996" y="39.053"/><use xlink:href="#6"/><use xlink:href="#7" y="2.171"/><use xlink:href="#8" y="4.342"/><use xlink:href="#9" y="6.513"/><use xlink:href="#10" y="8.684"/><use xlink:href="#11" y="10.855"/><use xlink:href="#12" y="13.026"/><use xlink:href="#13" y="15.197"/><use xlink:href="#14" y="17.368"/><use xlink:href="#15" y="19.539"/><use xlink:href="#16" y="21.71"/><use xlink:href="#17" y="23.881"/><use xlink:href="#18" y="26.052"/><use xlink:href="#19" y="28.223"/><use xlink:href="#20" y="30.394"/><use xlink:href="#22" y="32.565"/><use xlink:href="#23" y="34.736"/><use xlink:href="#24" y="36.907"/><use xlink:href="#25" y="39.078"/></svg><svg x="11136"><use xlink:href="#a"/><use xlink:href="#b" x="-.004" y="39.053"/><use xlink:href="#7"/><use xlink:href="#8" y="2.171"/><use xlink:href="#9" y="4.342"/><use xlink:href="#10" y="6.513"/><use xlink:href="#11" y="8.684"/><use xlink:href="#12" y="10.855"/><use xlink:href="#13" y="13.026"/><use xlink:href="#14" y="15.197"/><use xlink:href="#15" y="17.368"/><use xlink:href="#16" y="19.539"/><use xlink:href="#17" y="21.71"/><use xlink:href="#18" y="23.881"/><use xlink:href="#19" y="26.052"/><use xlink:href="#20" y="28.223"/><use xlink:href="#22" y="30.394"/><use xlink:href="#23" y="32.565"/><use xlink:href="#24" y="34.736"/><use xlink:href="#25" y="36.907"/></svg><svg x="11368"><use xlink:href="#a"/><use xlink:href="#b" x="-.004" y="39.053"/><use xlink:href="#8"/><use xlink:href="#9" y="2.171"/><use xlink:href="#10" y="4.342"/><use xlink:href="#11" y="6.513"/><use xlink:href="#12" y="8.684"/><use xlink:href="#13" y="10.855"/><use xlink:href="#14" y="13.026"/><use xlink:href="#15" y="15.197"/><use xlink:href="#16" y="17.368"/><use xlink:href="#17" y="19.539"/><use xlink:href="#18" y="21.71"/><use xlink:href="#19" y="23.881"/><use xlink:href="#20" y="26.052"/><use xlink:href="#22" y="28.223"/><use xlink:href="#23" y="30.394"/><use xlink:href="#24" y="32.565"/><use xlink:href="#25" y="34.736"/><text y="38.577" class="i">logout</text></svg></svg></g></g></svg></svg>